G04 Layer_Color=16711935*
%FSLAX25Y25*%
%MOIN*%
G70*
G01*
G75*
%ADD45C,0.01000*%
D45*
X100000Y125000D02*
X100010Y123990D01*
X100062Y122982D01*
X100155Y121977D01*
X100288Y120976D01*
X100462Y119981D01*
X100677Y118995D01*
X100932Y118018D01*
X101226Y117052D01*
X101560Y116099D01*
X101932Y115161D01*
X102342Y114238D01*
X102789Y113333D01*
X103273Y112447D01*
X103793Y111581D01*
X104347Y110737D01*
X104936Y109917D01*
X105557Y109121D01*
X106211Y108351D01*
X106895Y107609D01*
X107609Y106895D01*
X108351Y106211D01*
X109121Y105557D01*
X109917Y104936D01*
X110737Y104347D01*
X111581Y103793D01*
X112447Y103273D01*
X113333Y102789D01*
X114238Y102342D01*
X115161Y101932D01*
X116099Y101560D01*
X117052Y101226D01*
X118018Y100932D01*
X118995Y100677D01*
X119981Y100462D01*
X120976Y100288D01*
X121977Y100155D01*
X122982Y100062D01*
X123990Y100010D01*
X125000Y100000D01*
X390000D02*
X390994Y100010D01*
X391988Y100040D01*
X392981Y100089D01*
X393973Y100158D01*
X394963Y100247D01*
X395951Y100355D01*
X396937Y100484D01*
X397920Y100631D01*
X398900Y100798D01*
X399876Y100985D01*
X400849Y101191D01*
X401817Y101417D01*
X402781Y101661D01*
X403740Y101925D01*
X404693Y102208D01*
X405640Y102509D01*
X406581Y102829D01*
X407516Y103168D01*
X408443Y103526D01*
X409364Y103902D01*
X410277Y104296D01*
X411181Y104708D01*
X412078Y105138D01*
X412965Y105586D01*
X413844Y106051D01*
X414713Y106534D01*
X415572Y107034D01*
X416421Y107551D01*
X417260Y108085D01*
X418088Y108635D01*
X418905Y109202D01*
X419710Y109784D01*
X420504Y110383D01*
X421286Y110997D01*
X422055Y111627D01*
X422812Y112272D01*
X423555Y112932D01*
X424286Y113606D01*
X425002Y114295D01*
X425705Y114998D01*
X426394Y115715D01*
X427069Y116445D01*
X427729Y117189D01*
X428373Y117946D01*
X429003Y118715D01*
X429618Y119497D01*
X430216Y120290D01*
X430799Y121096D01*
X431365Y121913D01*
X431916Y122741D01*
X432449Y123579D01*
X432966Y124429D01*
X433466Y125288D01*
X433949Y126157D01*
X434414Y127036D01*
X434862Y127923D01*
X435292Y128820D01*
X435704Y129724D01*
X436098Y130637D01*
X436474Y131557D01*
X436832Y132485D01*
X437171Y133420D01*
X437491Y134361D01*
X437793Y135308D01*
X438075Y136261D01*
X438339Y137220D01*
X438584Y138183D01*
X438809Y139152D01*
X439015Y140124D01*
X439202Y141101D01*
X439369Y142081D01*
X439517Y143064D01*
X439645Y144050D01*
X439753Y145038D01*
X439842Y146028D01*
X439911Y147020D01*
X439960Y148013D01*
X439990Y149007D01*
X440000Y150000D01*
Y265000D02*
X439983Y266005D01*
X439946Y267009D01*
X439888Y268012D01*
X439811Y269014D01*
X439714Y270015D01*
X439597Y271013D01*
X439459Y272008D01*
X439302Y273001D01*
X439126Y273990D01*
X438929Y274976D01*
X438713Y275957D01*
X438478Y276934D01*
X438223Y277906D01*
X437948Y278873D01*
X437655Y279834D01*
X437342Y280789D01*
X437010Y281738D01*
X436660Y282680D01*
X436290Y283614D01*
X435902Y284541D01*
X435496Y285460D01*
X435072Y286371D01*
X434629Y287273D01*
X434168Y288167D01*
X433690Y289050D01*
X433194Y289925D01*
X432681Y290789D01*
X432151Y291642D01*
X431603Y292485D01*
X431039Y293317D01*
X430459Y294137D01*
X429862Y294946D01*
X429249Y295742D01*
X428621Y296527D01*
X427977Y297298D01*
X427318Y298057D01*
X426643Y298802D01*
X425954Y299533D01*
X425251Y300251D01*
X424533Y300954D01*
X423802Y301643D01*
X423057Y302318D01*
X422298Y302977D01*
X421527Y303621D01*
X420742Y304250D01*
X419946Y304862D01*
X419137Y305459D01*
X418317Y306039D01*
X417485Y306603D01*
X416642Y307151D01*
X415789Y307681D01*
X414924Y308194D01*
X414050Y308690D01*
X413167Y309168D01*
X412273Y309629D01*
X411371Y310071D01*
X410460Y310496D01*
X409541Y310902D01*
X408614Y311290D01*
X407680Y311660D01*
X406738Y312010D01*
X405789Y312342D01*
X404834Y312655D01*
X403873Y312948D01*
X402906Y313223D01*
X401934Y313478D01*
X400957Y313713D01*
X399976Y313929D01*
X398990Y314126D01*
X398001Y314302D01*
X397008Y314459D01*
X396013Y314597D01*
X395015Y314714D01*
X394014Y314811D01*
X393012Y314888D01*
X392009Y314946D01*
X391005Y314983D01*
X390000Y315000D01*
X100000Y181500D02*
X180000D01*
Y253500D01*
X122500D02*
X180000D01*
X122500D02*
Y315000D01*
X100000Y125000D02*
Y181500D01*
X125000Y100000D02*
X390000D01*
X122500Y315000D02*
X390000D01*
X440000Y150000D02*
Y265000D01*
M02*
