M48
;Layer_Color=9474304
;FILE_FORMAT=2:5
INCH,TZ
;TYPE=PLATED
T1F00S00C0.01181
T2F00S00C0.01575
T3F00S00C0.02799
T4F00S00C0.02800
T5F00S00C0.03543
T6F00S00C0.03937
T7F00S00C0.04000
T8F00S00C0.04331
T9F00S00C0.12500
T10F00S00C0.12992
%
T01
X161440Y128858
X164047Y127547
X168000Y123722
X174000
X177000Y123749
X373575Y161634
X378675
X383775
Y166834
X378675
Y171934
Y177034
Y182134
Y187234
Y192334
X383775
Y187234
Y182134
Y177034
X383776Y171933
X373575Y171934
Y177034
Y182134
Y187234
Y192334
Y166834
X374000Y225854
X379100
X384200
Y231054
X379100
Y236154
Y241254
Y246354
Y251454
Y256554
X384200
Y251454
Y246354
Y241254
X384201Y236154
X374000Y236154
Y241254
Y246354
Y251454
Y256554
Y231054
X170000Y272500
X167825Y270346
T02
X137000Y105500
X140220
X143500
X133486Y112500
X133500Y116011
Y119638
X137003Y127142
X140224
X143503
X166500Y278669
X169000Y293796
X179495Y271500
X198179Y272500
X197786Y281547
Y285228
Y289000
X215612Y287584
X205425Y268500
X259075Y214500
X259000Y210921
X263065Y211000
X263000Y214500
X262925Y199500
X262991Y196000
X258925Y195921
X259000Y199500
T03
X385500Y139069
X391000Y146500
X381992Y199500
X388500Y210000
X394500Y220000
X424178Y226621
X431000
X430277Y195921
Y189432
X359638Y199000
X360000Y213500
X367000Y263728
X377500Y269331
X283842Y276000
Y281547
X190212Y194500
X190422Y189432
Y184143
T04
X188000Y129000
X211500Y133000
X208500Y142500
X208000Y151000
X347500Y172000
Y179500
X354897Y175157
X348607Y197000
Y216000
X349000Y224000
X356500Y231500
X354000Y238500
X405000Y226000
X404500Y159000
X207000Y182500
X215547Y250500
X229500Y283000
T05
X287500Y129000
X297500
X307500
X297500Y141500
X287500
X317500Y129000
T06
X329500Y140000
X339500
X349500
X359500
Y150000
X349500
X339500
X329500
Y160000
X339500
X349500
X359500
Y255000
X349500
X339500
X329500
Y265000
Y275000
X339500
Y265000
X349500
Y275000
X359500
Y265000
X214500Y200500
X204500
X194500
T07
X412000Y156547
Y166547
Y176547
Y186547
Y228500
Y238500
Y248500
Y258500
T08
X136299Y134500
Y144343
Y154185
X177500Y117500
X187500
X197500
Y107500
X207500
X217500
Y117500
X227500
Y107500
X237500
X247500
X257500
Y117500
X267500
Y107500
X277500
X287500
Y117500
X277500
X297500
X307500
Y107500
X297500
X247500Y117500
X237500
X207500
X187500Y107500
X177500
X317500
Y117500
X327500
X337500
X347500
Y107500
X357500
X367500
Y117500
X377500
Y107500
X387500
X397500
Y117500
X387500
X357500
X337500Y107500
X327500
X315000Y247500
X317500Y297500
X327500
Y307500
X317500
X337500
Y297500
X347500
X357500
Y307500
X347500
X367500
X377500
X387500
Y297500
X397500
Y307500
X377500Y297500
X367500
X307500
X297500
Y307500
X307500
X287500
X277500
Y297500
X287500
X267500
Y307500
X257500
X247500
X237500
Y297500
X247500
X257500
X227500
Y307500
X217500
X207500
Y297500
X197500
X187500
X177500
Y307500
X187500
X197500
X217500Y297500
X235000Y247500
X245000
X255000
X265000
X275000
X285000
X295000
X305000
X295000Y167500
X285000
X275000
X265000
X136299Y164028
T09
X157500Y112500
X417500Y125000
Y290000
X157500Y302500
T10
X240000Y187500
Y227500
X310000
Y187500
M30
