G04 Layer_Color=8388736*
%FSLAX25Y25*%
%MOIN*%
G70*
G01*
G75*
%ADD52R,0.13976X0.35689*%
%ADD53R,0.08280X0.05524*%
%ADD54R,0.09461X0.07099*%
%ADD55R,0.06312X0.05131*%
%ADD56R,0.06800X0.06800*%
%ADD57R,0.05131X0.06312*%
%ADD58R,0.04343X0.03556*%
%ADD59R,0.03950X0.04343*%
%ADD60R,0.04343X0.03950*%
%ADD61R,0.02375X0.03950*%
%ADD62R,0.03950X0.02375*%
%ADD63R,0.03556X0.04343*%
%ADD64R,0.05131X0.13792*%
%ADD65R,0.06902X0.05918*%
%ADD66R,0.08674X0.01981*%
%ADD67O,0.08674X0.01981*%
%ADD68C,0.07690*%
%ADD69C,0.06706*%
%ADD70R,0.06706X0.06706*%
%ADD71C,0.07887*%
%ADD72C,0.08280*%
%ADD73C,0.22453*%
%ADD74R,0.13792X0.34265*%
%ADD75C,0.08674*%
%ADD76C,0.24422*%
%ADD77C,0.03556*%
D52*
X378650Y177069D02*
D03*
X379075Y241289D02*
D03*
D53*
X382874Y152437D02*
D03*
Y144563D02*
D03*
Y217937D02*
D03*
Y210063D02*
D03*
D54*
X398425Y148500D02*
D03*
Y214000D02*
D03*
D55*
X162000Y158047D02*
D03*
Y163953D02*
D03*
X207500Y174453D02*
D03*
Y168547D02*
D03*
X162000Y145595D02*
D03*
Y151500D02*
D03*
X198500Y168547D02*
D03*
Y174453D02*
D03*
X189500Y174453D02*
D03*
Y168547D02*
D03*
X161953Y138906D02*
D03*
Y133000D02*
D03*
D56*
X164598Y174000D02*
D03*
X178098D02*
D03*
X192500Y232500D02*
D03*
X206000D02*
D03*
X192500Y245059D02*
D03*
X206000D02*
D03*
D57*
X149047Y138500D02*
D03*
X154953D02*
D03*
D58*
X174000Y127094D02*
D03*
Y133000D02*
D03*
X199500Y127547D02*
D03*
Y133453D02*
D03*
X205000Y133453D02*
D03*
Y127547D02*
D03*
X179634Y132953D02*
D03*
Y127047D02*
D03*
X154953Y126550D02*
D03*
Y132455D02*
D03*
X168500Y133000D02*
D03*
Y127094D02*
D03*
X194000Y133453D02*
D03*
Y127547D02*
D03*
X171500Y258335D02*
D03*
Y264240D02*
D03*
X214500Y263047D02*
D03*
Y268953D02*
D03*
X193500Y257547D02*
D03*
Y263453D02*
D03*
X178995Y261094D02*
D03*
Y267000D02*
D03*
X209500Y286953D02*
D03*
Y281047D02*
D03*
D59*
X221512Y237500D02*
D03*
X216000D02*
D03*
D60*
X179500Y276000D02*
D03*
Y281512D02*
D03*
X171000Y282012D02*
D03*
Y276500D02*
D03*
X188000Y281512D02*
D03*
Y276000D02*
D03*
Y263988D02*
D03*
Y269500D02*
D03*
D61*
X162559Y266839D02*
D03*
X160000D02*
D03*
X157441D02*
D03*
Y275500D02*
D03*
X160000D02*
D03*
X162559D02*
D03*
D62*
X209331Y268559D02*
D03*
Y266000D02*
D03*
Y263441D02*
D03*
X200669D02*
D03*
Y266000D02*
D03*
Y268559D02*
D03*
D63*
X154953Y163933D02*
D03*
X149047D02*
D03*
X149047Y169500D02*
D03*
X154953D02*
D03*
X154953Y158000D02*
D03*
X149047D02*
D03*
X154953Y151500D02*
D03*
X149047D02*
D03*
X154953Y145000D02*
D03*
X149047D02*
D03*
X221453Y232000D02*
D03*
X215547D02*
D03*
X215547Y242882D02*
D03*
X221453D02*
D03*
X157047Y281500D02*
D03*
X162953D02*
D03*
X162953Y287500D02*
D03*
X157047D02*
D03*
X203547Y258000D02*
D03*
X209453D02*
D03*
X255047Y259000D02*
D03*
X260953D02*
D03*
X279953Y257000D02*
D03*
X274047D02*
D03*
D64*
X140220Y116000D02*
D03*
X117780D02*
D03*
D65*
X248650Y127142D02*
D03*
X217350D02*
D03*
X248650Y144858D02*
D03*
X217350D02*
D03*
X254150Y265642D02*
D03*
X222850D02*
D03*
X254150Y283358D02*
D03*
X222850D02*
D03*
X297650Y265642D02*
D03*
X266350D02*
D03*
X297650Y283358D02*
D03*
X266350D02*
D03*
D66*
X195500Y138311D02*
D03*
D67*
Y140870D02*
D03*
Y143429D02*
D03*
Y145988D02*
D03*
Y148547D02*
D03*
Y151106D02*
D03*
Y153665D02*
D03*
Y156224D02*
D03*
Y158783D02*
D03*
Y161343D02*
D03*
X173453Y138311D02*
D03*
Y140870D02*
D03*
Y143429D02*
D03*
Y145988D02*
D03*
Y148547D02*
D03*
Y151106D02*
D03*
Y153665D02*
D03*
Y156224D02*
D03*
Y158783D02*
D03*
Y161343D02*
D03*
D68*
X136299Y134500D02*
D03*
Y144343D02*
D03*
Y154185D02*
D03*
Y164028D02*
D03*
X412000Y156547D02*
D03*
Y166547D02*
D03*
Y186547D02*
D03*
Y176547D02*
D03*
Y228500D02*
D03*
Y238500D02*
D03*
Y258500D02*
D03*
Y248500D02*
D03*
X339500Y255000D02*
D03*
Y275000D02*
D03*
X329500Y255000D02*
D03*
Y265000D02*
D03*
Y275000D02*
D03*
X339500Y265000D02*
D03*
X349500Y255000D02*
D03*
Y265000D02*
D03*
Y275000D02*
D03*
X359500Y255000D02*
D03*
Y265000D02*
D03*
Y275000D02*
D03*
X349500Y160000D02*
D03*
Y140000D02*
D03*
X359500Y160000D02*
D03*
Y150000D02*
D03*
Y140000D02*
D03*
X349500Y150000D02*
D03*
X339500Y160000D02*
D03*
Y150000D02*
D03*
Y140000D02*
D03*
X329500Y160000D02*
D03*
Y150000D02*
D03*
Y140000D02*
D03*
D69*
X297500Y141500D02*
D03*
Y129000D02*
D03*
X307500D02*
D03*
X317500D02*
D03*
D70*
X287500Y141500D02*
D03*
Y129000D02*
D03*
D71*
X194500Y200500D02*
D03*
X204500D02*
D03*
X214500D02*
D03*
D72*
X367500Y107500D02*
D03*
Y117500D02*
D03*
X377500D02*
D03*
Y107500D02*
D03*
X397500D02*
D03*
Y117500D02*
D03*
X387500D02*
D03*
Y107500D02*
D03*
X347500D02*
D03*
Y117500D02*
D03*
X357500D02*
D03*
Y107500D02*
D03*
X337500D02*
D03*
Y117500D02*
D03*
X257500Y107500D02*
D03*
Y117500D02*
D03*
X267500D02*
D03*
Y107500D02*
D03*
X287500D02*
D03*
Y117500D02*
D03*
X277500D02*
D03*
Y107500D02*
D03*
X317500D02*
D03*
Y117500D02*
D03*
X327500D02*
D03*
Y107500D02*
D03*
X307500D02*
D03*
Y117500D02*
D03*
X297500D02*
D03*
Y107500D02*
D03*
X217500D02*
D03*
Y117500D02*
D03*
X227500D02*
D03*
Y107500D02*
D03*
X247500D02*
D03*
Y117500D02*
D03*
X237500D02*
D03*
Y107500D02*
D03*
X197500D02*
D03*
Y117500D02*
D03*
X207500D02*
D03*
Y107500D02*
D03*
X187500D02*
D03*
Y117500D02*
D03*
X177500D02*
D03*
Y107500D02*
D03*
Y297500D02*
D03*
Y307500D02*
D03*
X187500D02*
D03*
Y297500D02*
D03*
X207500D02*
D03*
Y307500D02*
D03*
X197500D02*
D03*
Y297500D02*
D03*
X237500D02*
D03*
Y307500D02*
D03*
X247500D02*
D03*
Y297500D02*
D03*
X227500D02*
D03*
Y307500D02*
D03*
X217500D02*
D03*
Y297500D02*
D03*
X297500D02*
D03*
Y307500D02*
D03*
X307500D02*
D03*
Y297500D02*
D03*
X327500D02*
D03*
Y307500D02*
D03*
X317500D02*
D03*
Y297500D02*
D03*
X277500D02*
D03*
Y307500D02*
D03*
X287500D02*
D03*
Y297500D02*
D03*
X267500D02*
D03*
Y307500D02*
D03*
X257500D02*
D03*
Y297500D02*
D03*
X337500Y307500D02*
D03*
Y297500D02*
D03*
X357500D02*
D03*
Y307500D02*
D03*
X347500D02*
D03*
Y297500D02*
D03*
X387500D02*
D03*
Y307500D02*
D03*
X397500D02*
D03*
Y297500D02*
D03*
X377500D02*
D03*
Y307500D02*
D03*
X367500D02*
D03*
Y297500D02*
D03*
D73*
X157500Y112500D02*
D03*
Y302500D02*
D03*
X417500Y290000D02*
D03*
Y125000D02*
D03*
D74*
X378650Y177000D02*
D03*
X379075Y241220D02*
D03*
D75*
X235000Y247500D02*
D03*
X245000D02*
D03*
X255000D02*
D03*
X265000D02*
D03*
X275000D02*
D03*
X285000D02*
D03*
X295000D02*
D03*
X305000D02*
D03*
X315000D02*
D03*
X295000Y167500D02*
D03*
X285000D02*
D03*
X275000D02*
D03*
X265000D02*
D03*
D76*
X240000Y187500D02*
D03*
Y227500D02*
D03*
X310000D02*
D03*
Y187500D02*
D03*
D77*
X383775Y192334D02*
D03*
X378675D02*
D03*
X373575D02*
D03*
X383775Y187234D02*
D03*
X378675D02*
D03*
X373575D02*
D03*
X383775Y182134D02*
D03*
X378675D02*
D03*
X373575D02*
D03*
X383775Y177034D02*
D03*
X378675D02*
D03*
X373575D02*
D03*
X378675Y171934D02*
D03*
X373575D02*
D03*
X383775Y166834D02*
D03*
X378675D02*
D03*
X373575D02*
D03*
X383775Y161634D02*
D03*
X378675D02*
D03*
X373575D02*
D03*
X383776Y171933D02*
D03*
X384200Y256554D02*
D03*
X379100D02*
D03*
X374000D02*
D03*
X384200Y251454D02*
D03*
X379100D02*
D03*
X374000D02*
D03*
X384200Y246354D02*
D03*
X379100D02*
D03*
X374000D02*
D03*
X384200Y241254D02*
D03*
X379100D02*
D03*
X374000D02*
D03*
X379100Y236154D02*
D03*
X374000D02*
D03*
X384200Y231054D02*
D03*
X379100D02*
D03*
X374000D02*
D03*
X384200Y225854D02*
D03*
X379100D02*
D03*
X374000D02*
D03*
X384201Y236154D02*
D03*
M02*
