G04 Layer_Color=65535*
%FSLAX25Y25*%
%MOIN*%
G70*
G01*
G75*
%ADD25C,0.00787*%
%ADD44C,0.00984*%
%ADD45C,0.01000*%
%ADD46C,0.01200*%
%ADD47C,0.00394*%
%ADD48C,0.00300*%
%ADD49C,0.00700*%
%ADD50C,0.00060*%
%ADD51C,0.00675*%
D25*
X185116Y137031D02*
X184476Y137671D01*
X183837Y137031D01*
X172622Y129260D02*
Y130835D01*
X175378Y129260D02*
Y130835D01*
X198122Y129713D02*
Y131287D01*
X200878Y129713D02*
Y131287D01*
X206378Y129713D02*
Y131287D01*
X203622Y129713D02*
Y131287D01*
X282500Y146500D02*
X302500D01*
X282500Y136500D02*
Y146500D01*
Y136500D02*
X302500D01*
Y146500D01*
X322500Y124000D02*
Y134000D01*
X282500Y124000D02*
X322500D01*
X282500Y134000D02*
X322500D01*
X282500Y124000D02*
Y134000D01*
X155669Y270185D02*
X164331D01*
X155669Y272153D02*
X164331D01*
X155669Y270185D02*
Y272153D01*
X164331Y270185D02*
Y272153D01*
X205984Y261669D02*
Y270331D01*
X204016Y261669D02*
Y270331D01*
Y261669D02*
X205984D01*
X204016Y270331D02*
X205984D01*
X151213Y162555D02*
X152787D01*
X151213Y165311D02*
X152787D01*
X151213Y170878D02*
X152787D01*
X151213Y168122D02*
X152787D01*
X181012Y129213D02*
Y130787D01*
X178256Y129213D02*
Y130787D01*
X151213Y156622D02*
X152787D01*
X151213Y159378D02*
X152787D01*
X151213Y150122D02*
X152787D01*
X151213Y152878D02*
X152787D01*
X151213Y143622D02*
X152787D01*
X151213Y146378D02*
X152787D01*
X153575Y128715D02*
Y130290D01*
X156331Y128715D02*
Y130290D01*
X169878Y129260D02*
Y130835D01*
X167122Y129260D02*
Y130835D01*
X195378Y129713D02*
Y131287D01*
X192622Y129713D02*
Y131287D01*
X121520Y109898D02*
X136480D01*
X121520Y122102D02*
X136480D01*
X217713Y230622D02*
X219287D01*
X217713Y233378D02*
X219287D01*
X217713Y244260D02*
X219287D01*
X217713Y241504D02*
X219287D01*
X170122Y260500D02*
Y262075D01*
X172878Y260500D02*
Y262075D01*
X159213Y282878D02*
X160787D01*
X159213Y280122D02*
X160787D01*
X213122Y265213D02*
Y266787D01*
X215878Y265213D02*
Y266787D01*
X192122Y259713D02*
Y261287D01*
X194878Y259713D02*
Y261287D01*
X159213Y286122D02*
X160787D01*
X159213Y288878D02*
X160787D01*
X177617Y263260D02*
Y264835D01*
X180373Y263260D02*
Y264835D01*
X205713Y259378D02*
X207287D01*
X205713Y256622D02*
X207287D01*
X210878Y283213D02*
Y284787D01*
X208122Y283213D02*
Y284787D01*
X257213Y260378D02*
X258787D01*
X257213Y257622D02*
X258787D01*
X276213Y255622D02*
X277787D01*
X276213Y258378D02*
X277787D01*
X185116Y137031D02*
X188276D01*
X180677D02*
X183837D01*
X180677D02*
Y162622D01*
X188276D01*
Y137031D02*
Y162622D01*
X230000Y252500D02*
X320000D01*
X230000Y162500D02*
X320000D01*
X230000D02*
Y179626D01*
Y235374D02*
Y252500D01*
X320000Y235374D02*
Y252500D01*
Y162500D02*
Y179626D01*
D44*
X166004Y274909D02*
X165266Y275336D01*
Y274483D01*
X166004Y274909D01*
X201752Y271512D02*
X201014Y271938D01*
Y271086D01*
X201752Y271512D01*
D45*
X196009Y135716D02*
X195260Y136149D01*
Y135284D01*
X196009Y135716D01*
X397244Y141807D02*
Y155193D01*
X383858Y141807D02*
X397244D01*
X383858D02*
Y155193D01*
X397244D01*
X417906Y151547D02*
X427906D01*
Y191547D01*
X417906D02*
X427906D01*
X417906Y151547D02*
Y191547D01*
Y223500D02*
X427906D01*
Y263500D01*
X417906D02*
X427906D01*
X417906Y223500D02*
Y263500D01*
X324500Y280906D02*
X364500D01*
X324500D02*
Y290905D01*
X364500D01*
Y280906D02*
Y290905D01*
X324500Y134095D02*
X364500D01*
Y124094D02*
Y134095D01*
X324500Y124094D02*
X364500D01*
X324500D02*
Y134095D01*
X397244Y207307D02*
Y220693D01*
X383858Y207307D02*
X397244D01*
X383858D02*
Y220693D01*
X397244D01*
D46*
X159598Y179000D02*
X167098D01*
X159598Y169000D02*
X167098D01*
X175598D02*
X183098D01*
X175598Y179000D02*
X183098D01*
X159598Y169000D02*
Y179000D01*
X183098Y169000D02*
Y179000D01*
X187500Y237500D02*
X195000D01*
X187500Y227500D02*
X195000D01*
X203500D02*
X211000D01*
X203500Y237500D02*
X211000D01*
X187500Y227500D02*
Y237500D01*
X211000Y227500D02*
Y237500D01*
X185700Y227500D02*
Y237500D01*
X187500Y250059D02*
X195000D01*
X187500Y240059D02*
X195000D01*
X203500D02*
X211000D01*
X203500Y250059D02*
X211000D01*
X187500Y240059D02*
Y250059D01*
X211000Y240059D02*
Y250059D01*
X185700Y240059D02*
Y250059D01*
D47*
X213498Y235428D02*
Y239424D01*
X177428Y284014D02*
X181424D01*
X169076Y273998D02*
X173072D01*
X186076Y273498D02*
X190072D01*
X185928Y272002D02*
X189924D01*
D48*
X145354Y124657D02*
Y173870D01*
X100079Y124657D02*
X145354D01*
X100079D02*
Y173870D01*
X145354D01*
D49*
X181665Y226091D02*
X227335D01*
X181665Y192626D02*
Y226091D01*
Y192626D02*
X227335D01*
Y226091D01*
X367700Y136157D02*
Y138823D01*
X369033Y140156D01*
X370366Y138823D01*
Y136157D01*
Y138156D01*
X367700D01*
X371699Y140156D02*
X373032D01*
X372365D01*
Y136157D01*
X371699D01*
X373032D01*
X375031D02*
Y140156D01*
X377697Y136157D01*
Y140156D01*
X381696D02*
X379030D01*
Y138156D01*
X380363Y138823D01*
X381029D01*
X381696Y138156D01*
Y136823D01*
X381029Y136157D01*
X379696D01*
X379030Y136823D01*
X367700Y129678D02*
Y132344D01*
X369033Y133677D01*
X370366Y132344D01*
Y129678D01*
Y131678D01*
X367700D01*
X371699Y133677D02*
X373032D01*
X372365D01*
Y129678D01*
X371699D01*
X373032D01*
X375031D02*
Y133677D01*
X377697Y129678D01*
Y133677D01*
X381029Y129678D02*
Y133677D01*
X379030Y131678D01*
X381696D01*
X367700Y123200D02*
Y125866D01*
X369033Y127199D01*
X370366Y125866D01*
Y123200D01*
Y125199D01*
X367700D01*
X371699Y127199D02*
X373032D01*
X372365D01*
Y123200D01*
X371699D01*
X373032D01*
X375031D02*
Y127199D01*
X377697Y123200D01*
Y127199D01*
X379030Y126532D02*
X379696Y127199D01*
X381029D01*
X381696Y126532D01*
Y125866D01*
X381029Y125199D01*
X380363D01*
X381029D01*
X381696Y124533D01*
Y123866D01*
X381029Y123200D01*
X379696D01*
X379030Y123866D01*
X382300Y277843D02*
Y275177D01*
X380967Y273844D01*
X379634Y275177D01*
Y277843D01*
Y275844D01*
X382300D01*
X378301Y273844D02*
X376968D01*
X377635D01*
Y277843D01*
X378301D01*
X376968D01*
X374969D02*
Y273844D01*
X372303Y277843D01*
Y273844D01*
X368304Y277843D02*
X370970D01*
X368304Y275177D01*
Y274511D01*
X368971Y273844D01*
X370304D01*
X370970Y274511D01*
X382300Y284321D02*
Y281656D01*
X380967Y280323D01*
X379634Y281656D01*
Y284321D01*
Y282322D01*
X382300D01*
X378301Y280323D02*
X376968D01*
X377635D01*
Y284321D01*
X378301D01*
X376968D01*
X374969D02*
Y280323D01*
X372303Y284321D01*
Y280323D01*
X370970Y284321D02*
X369637D01*
X370304D01*
Y280323D01*
X370970Y280989D01*
X382300Y290800D02*
Y288134D01*
X380967Y286801D01*
X379634Y288134D01*
Y290800D01*
Y288801D01*
X382300D01*
X378301Y286801D02*
X376968D01*
X377635D01*
Y290800D01*
X378301D01*
X376968D01*
X374969D02*
Y286801D01*
X372303Y290800D01*
Y286801D01*
X370970Y287468D02*
X370304Y286801D01*
X368971D01*
X368304Y287468D01*
Y290134D01*
X368971Y290800D01*
X370304D01*
X370970Y290134D01*
Y287468D01*
X169332Y160834D02*
X169999Y161501D01*
Y162833D01*
X169332Y163500D01*
X166666D01*
X166000Y162833D01*
Y161501D01*
X166666Y160834D01*
X166000Y159501D02*
Y158168D01*
Y158835D01*
X169999D01*
X169332Y159501D01*
X154166Y179332D02*
X153499Y179999D01*
X152166D01*
X151500Y179332D01*
Y176666D01*
X152166Y176000D01*
X153499D01*
X154166Y176666D01*
X158165Y176000D02*
X155499D01*
X158165Y178666D01*
Y179332D01*
X157498Y179999D01*
X156165D01*
X155499Y179332D01*
X199664Y184016D02*
X199001Y183347D01*
X199007Y182014D01*
X199677Y181350D01*
X202343Y181363D01*
X203006Y182033D01*
X202999Y183365D01*
X202330Y184029D01*
X199658Y185349D02*
X198988Y186012D01*
X198982Y187345D01*
X199645Y188015D01*
X200312Y188018D01*
X200981Y187355D01*
X200984Y186688D01*
X200981Y187355D01*
X201644Y188024D01*
X202311Y188027D01*
X202981Y187364D01*
X202987Y186031D01*
X202324Y185362D01*
X169332Y148834D02*
X169999Y149501D01*
Y150833D01*
X169332Y151500D01*
X166666D01*
X166000Y150833D01*
Y149501D01*
X166666Y148834D01*
X166000Y145502D02*
X169999D01*
X167999Y147501D01*
Y144835D01*
X192522Y184032D02*
X191856Y183365D01*
Y182033D01*
X192522Y181366D01*
X195188D01*
X195854Y182033D01*
Y183365D01*
X195188Y184032D01*
X191856Y188031D02*
Y185365D01*
X193855D01*
X193189Y186698D01*
Y187364D01*
X193855Y188031D01*
X195188D01*
X195854Y187364D01*
Y186031D01*
X195188Y185365D01*
X142666Y139832D02*
X141999Y140499D01*
X140666D01*
X140000Y139832D01*
Y137167D01*
X140666Y136500D01*
X141999D01*
X142666Y137167D01*
X146665Y140499D02*
X145332Y139832D01*
X143999Y138499D01*
Y137167D01*
X144665Y136500D01*
X145998D01*
X146665Y137167D01*
Y137833D01*
X145998Y138499D01*
X143999D01*
X185690Y183973D02*
X185035Y183294D01*
X185059Y181962D01*
X185737Y181307D01*
X188402Y181354D01*
X189057Y182033D01*
X189033Y183365D01*
X188355Y184020D01*
X185000Y185293D02*
X184953Y187959D01*
X185619Y187971D01*
X188332Y185352D01*
X188998Y185364D01*
X151332Y133287D02*
X151999Y133953D01*
Y135286D01*
X151332Y135953D01*
X148667D01*
X148000Y135286D01*
Y133953D01*
X148667Y133287D01*
X151332Y131954D02*
X151999Y131288D01*
Y129955D01*
X151332Y129288D01*
X150666D01*
X149999Y129955D01*
X149333Y129288D01*
X148667D01*
X148000Y129955D01*
Y131288D01*
X148667Y131954D01*
X149333D01*
X149999Y131288D01*
X150666Y131954D01*
X151332D01*
X149999Y131288D02*
Y129955D01*
X169908Y123879D02*
X169236Y124540D01*
X167903Y124528D01*
X167242Y123856D01*
X167265Y121191D01*
X167937Y120530D01*
X169270Y120541D01*
X169931Y121213D01*
X171264Y121225D02*
X171936Y120564D01*
X173269Y120576D01*
X173930Y121248D01*
X173907Y123914D01*
X173234Y124574D01*
X171902Y124563D01*
X171241Y123891D01*
X171247Y123224D01*
X171919Y122564D01*
X173918Y122581D01*
X201375Y124832D02*
X200708Y125499D01*
X199375D01*
X198709Y124832D01*
Y122167D01*
X199375Y121500D01*
X200708D01*
X201375Y122167D01*
X202708Y121500D02*
X204041D01*
X203374D01*
Y125499D01*
X202708Y124832D01*
X206040D02*
X206706Y125499D01*
X208039D01*
X208706Y124832D01*
Y122167D01*
X208039Y121500D01*
X206706D01*
X206040Y122167D01*
Y124832D01*
X182168Y231166D02*
X181501Y230499D01*
Y229166D01*
X182168Y228500D01*
X184834D01*
X185500Y229166D01*
Y230499D01*
X184834Y231166D01*
X185500Y232499D02*
Y233832D01*
Y233165D01*
X181501D01*
X182168Y232499D01*
X185500Y235831D02*
Y237164D01*
Y236497D01*
X181501D01*
X182168Y235831D01*
Y242666D02*
X181501Y241999D01*
Y240666D01*
X182168Y240000D01*
X184834D01*
X185500Y240666D01*
Y241999D01*
X184834Y242666D01*
X185500Y243999D02*
Y245332D01*
Y244665D01*
X181501D01*
X182168Y243999D01*
X185500Y249997D02*
Y247331D01*
X182834Y249997D01*
X182168D01*
X181501Y249330D01*
Y247997D01*
X182168Y247331D01*
X202093Y138666D02*
X201427Y137999D01*
Y136667D01*
X202093Y136000D01*
X204759D01*
X205425Y136667D01*
Y137999D01*
X204759Y138666D01*
X205425Y139999D02*
Y141332D01*
Y140665D01*
X201427D01*
X202093Y139999D01*
Y143331D02*
X201427Y143997D01*
Y145330D01*
X202093Y145997D01*
X202759D01*
X203426Y145330D01*
Y144664D01*
Y145330D01*
X204092Y145997D01*
X204759D01*
X205425Y145330D01*
Y143997D01*
X204759Y143331D01*
X220000Y255999D02*
Y252000D01*
X221999D01*
X222666Y252666D01*
Y255332D01*
X221999Y255999D01*
X220000D01*
X223999Y252000D02*
X225332D01*
X224665D01*
Y255999D01*
X223999Y255332D01*
X169001Y285000D02*
X173000D01*
Y286999D01*
X172334Y287666D01*
X169668D01*
X169001Y286999D01*
Y285000D01*
X173000Y291665D02*
Y288999D01*
X170334Y291665D01*
X169668D01*
X169001Y290998D01*
Y289665D01*
X169668Y288999D01*
X177501Y285000D02*
X181500D01*
Y286999D01*
X180833Y287666D01*
X178168D01*
X177501Y286999D01*
Y285000D01*
X178168Y288999D02*
X177501Y289665D01*
Y290998D01*
X178168Y291665D01*
X178834D01*
X179501Y290998D01*
Y290332D01*
Y290998D01*
X180167Y291665D01*
X180833D01*
X181500Y290998D01*
Y289665D01*
X180833Y288999D01*
X186001Y285000D02*
X190000D01*
Y286999D01*
X189333Y287666D01*
X186668D01*
X186001Y286999D01*
Y285000D01*
X190000Y290998D02*
X186001D01*
X188001Y288999D01*
Y291665D01*
X185925Y254248D02*
X189924D01*
Y256247D01*
X189257Y256914D01*
X186591D01*
X185925Y256247D01*
Y254248D01*
Y260912D02*
Y258247D01*
X187924D01*
X187258Y259580D01*
Y260246D01*
X187924Y260912D01*
X189257D01*
X189924Y260246D01*
Y258913D01*
X189257Y258247D01*
X103666Y179719D02*
X102333D01*
X102999D01*
Y176387D01*
X102333Y175720D01*
X101666D01*
X101000Y176387D01*
X104999Y175720D02*
X106332D01*
X105665D01*
Y179719D01*
X104999Y179053D01*
X285166Y159999D02*
X283833D01*
X284499D01*
Y156667D01*
X283833Y156000D01*
X283166D01*
X282500Y156667D01*
X289164Y156000D02*
X286499D01*
X289164Y158666D01*
Y159332D01*
X288498Y159999D01*
X287165D01*
X286499Y159332D01*
X420501Y196166D02*
Y194833D01*
Y195499D01*
X423834D01*
X424500Y194833D01*
Y194167D01*
X423834Y193500D01*
X424500Y199498D02*
X420501D01*
X422501Y197499D01*
Y200165D01*
X420001Y268166D02*
Y266833D01*
Y267499D01*
X423334D01*
X424000Y266833D01*
Y266166D01*
X423334Y265500D01*
X420668Y269499D02*
X420001Y270165D01*
Y271498D01*
X420668Y272165D01*
X421334D01*
X422001Y271498D01*
X422667Y272165D01*
X423334D01*
X424000Y271498D01*
Y270165D01*
X423334Y269499D01*
X422667D01*
X422001Y270165D01*
X421334Y269499D01*
X420668D01*
X422001Y270165D02*
Y271498D01*
X159166Y260166D02*
Y262832D01*
X158499Y263499D01*
X157167D01*
X156500Y262832D01*
Y260166D01*
X157167Y259500D01*
X158499D01*
X157833Y260833D02*
X159166Y259500D01*
X158499D02*
X159166Y260166D01*
X160499Y259500D02*
X161832D01*
X161165D01*
Y263499D01*
X160499Y262832D01*
X206166Y272666D02*
Y275332D01*
X205499Y275999D01*
X204167D01*
X203500Y275332D01*
Y272666D01*
X204167Y272000D01*
X205499D01*
X204833Y273333D02*
X206166Y272000D01*
X205499D02*
X206166Y272666D01*
X210164Y272000D02*
X207499D01*
X210164Y274666D01*
Y275332D01*
X209498Y275999D01*
X208165D01*
X207499Y275332D01*
X140000Y161500D02*
Y165499D01*
X141999D01*
X142666Y164832D01*
Y163499D01*
X141999Y162833D01*
X140000D01*
X141333D02*
X142666Y161500D01*
X143999D02*
X145332D01*
X144665D01*
Y165499D01*
X143999Y164832D01*
X139713Y168000D02*
Y171999D01*
X141712D01*
X142378Y171332D01*
Y169999D01*
X141712Y169333D01*
X139713D01*
X141045D02*
X142378Y168000D01*
X146377D02*
X143711D01*
X146377Y170666D01*
Y171332D01*
X145711Y171999D01*
X144378D01*
X143711Y171332D01*
X179958Y121000D02*
Y124999D01*
X181957D01*
X182624Y124332D01*
Y122999D01*
X181957Y122333D01*
X179958D01*
X181291D02*
X182624Y121000D01*
X183957Y124332D02*
X184623Y124999D01*
X185956D01*
X186622Y124332D01*
Y123666D01*
X185956Y122999D01*
X185290D01*
X185956D01*
X186622Y122333D01*
Y121667D01*
X185956Y121000D01*
X184623D01*
X183957Y121667D01*
X140000Y156000D02*
Y159999D01*
X141999D01*
X142666Y159332D01*
Y157999D01*
X141999Y157333D01*
X140000D01*
X141333D02*
X142666Y156000D01*
X145998D02*
Y159999D01*
X143999Y157999D01*
X146665D01*
X139713Y150000D02*
Y153999D01*
X141712D01*
X142378Y153332D01*
Y151999D01*
X141712Y151333D01*
X139713D01*
X141045D02*
X142378Y150000D01*
X146377Y153999D02*
X143711D01*
Y151999D01*
X145044Y152666D01*
X145711D01*
X146377Y151999D01*
Y150666D01*
X145711Y150000D01*
X144378D01*
X143711Y150666D01*
X139713Y143000D02*
Y146999D01*
X141712D01*
X142378Y146332D01*
Y144999D01*
X141712Y144333D01*
X139713D01*
X141045D02*
X142378Y143000D01*
X146377Y146999D02*
X145044Y146332D01*
X143711Y144999D01*
Y143667D01*
X144378Y143000D01*
X145711D01*
X146377Y143667D01*
Y144333D01*
X145711Y144999D01*
X143711D01*
X142500Y133000D02*
X146499D01*
Y131001D01*
X145832Y130334D01*
X144499D01*
X143833Y131001D01*
Y133000D01*
Y131667D02*
X142500Y130334D01*
X146499Y129001D02*
Y126336D01*
X145832D01*
X143166Y129001D01*
X142500D01*
X166000Y142000D02*
X169999D01*
Y140001D01*
X169332Y139334D01*
X167999D01*
X167333Y140001D01*
Y142000D01*
Y140667D02*
X166000Y139334D01*
X169332Y138001D02*
X169999Y137335D01*
Y136002D01*
X169332Y135336D01*
X168666D01*
X167999Y136002D01*
X167333Y135336D01*
X166666D01*
X166000Y136002D01*
Y137335D01*
X166666Y138001D01*
X167333D01*
X167999Y137335D01*
X168666Y138001D01*
X169332D01*
X167999Y137335D02*
Y136002D01*
X189958Y121589D02*
Y125587D01*
X191957D01*
X192624Y124921D01*
Y123588D01*
X191957Y122922D01*
X189958D01*
X191291D02*
X192624Y121589D01*
X193957Y122255D02*
X194623Y121589D01*
X195956D01*
X196623Y122255D01*
Y124921D01*
X195956Y125587D01*
X194623D01*
X193957Y124921D01*
Y124255D01*
X194623Y123588D01*
X196623D01*
X220000Y246500D02*
Y250499D01*
X221999D01*
X222666Y249832D01*
Y248499D01*
X221999Y247833D01*
X220000D01*
X221333D02*
X222666Y246500D01*
X223999D02*
X225332D01*
X224665D01*
Y250499D01*
X223999Y249832D01*
X227331Y246500D02*
X228664D01*
X227997D01*
Y250499D01*
X227331Y249832D01*
X220000Y257500D02*
Y261499D01*
X221999D01*
X222666Y260832D01*
Y259499D01*
X221999Y258833D01*
X220000D01*
X221333D02*
X222666Y257500D01*
X223999D02*
X225332D01*
X224665D01*
Y261499D01*
X223999Y260832D01*
X229997Y257500D02*
X227331D01*
X229997Y260166D01*
Y260832D01*
X229330Y261499D01*
X227997D01*
X227331Y260832D01*
X405551Y154000D02*
X409550D01*
Y152001D01*
X408883Y151334D01*
X407550D01*
X406884Y152001D01*
Y154000D01*
Y152667D02*
X405551Y151334D01*
Y150001D02*
Y148668D01*
Y149335D01*
X409550D01*
X408883Y150001D01*
Y146669D02*
X409550Y146003D01*
Y144670D01*
X408883Y144003D01*
X408217D01*
X407550Y144670D01*
X406884Y144003D01*
X406218D01*
X405551Y144670D01*
Y146003D01*
X406218Y146669D01*
X406884D01*
X407550Y146003D01*
X408217Y146669D01*
X408883D01*
X407550Y146003D02*
Y144670D01*
X168500Y254500D02*
X164501D01*
Y256499D01*
X165168Y257166D01*
X166501D01*
X167167Y256499D01*
Y254500D01*
Y255833D02*
X168500Y257166D01*
Y261164D02*
Y258499D01*
X165834Y261164D01*
X165168D01*
X164501Y260498D01*
Y259165D01*
X165168Y258499D01*
Y262497D02*
X164501Y263164D01*
Y264497D01*
X165168Y265163D01*
X165834D01*
X166501Y264497D01*
Y263830D01*
Y264497D01*
X167167Y265163D01*
X167833D01*
X168500Y264497D01*
Y263164D01*
X167833Y262497D01*
X150000Y279000D02*
X153999D01*
Y277001D01*
X153332Y276334D01*
X151999D01*
X151333Y277001D01*
Y279000D01*
Y277667D02*
X150000Y276334D01*
Y272336D02*
Y275001D01*
X152666Y272336D01*
X153332D01*
X153999Y273002D01*
Y274335D01*
X153332Y275001D01*
X150000Y269003D02*
X153999D01*
X151999Y271003D01*
Y268337D01*
X217350Y272000D02*
X213352D01*
Y273999D01*
X214018Y274666D01*
X215351D01*
X216018Y273999D01*
Y272000D01*
Y273333D02*
X217350Y274666D01*
Y278664D02*
Y275999D01*
X214685Y278664D01*
X214018D01*
X213352Y277998D01*
Y276665D01*
X214018Y275999D01*
X213352Y282663D02*
Y279997D01*
X215351D01*
X214685Y281330D01*
Y281997D01*
X215351Y282663D01*
X216684D01*
X217350Y281997D01*
Y280664D01*
X216684Y279997D01*
X195193Y266693D02*
X191194D01*
Y268692D01*
X191861Y269359D01*
X193193D01*
X193860Y268692D01*
Y266693D01*
Y268026D02*
X195193Y269359D01*
Y273357D02*
Y270692D01*
X192527Y273357D01*
X191861D01*
X191194Y272691D01*
Y271358D01*
X191861Y270692D01*
X191194Y277356D02*
X191861Y276023D01*
X193193Y274690D01*
X194526D01*
X195193Y275357D01*
Y276690D01*
X194526Y277356D01*
X193860D01*
X193193Y276690D01*
Y274690D01*
X150000Y291000D02*
X153999D01*
Y289001D01*
X153332Y288334D01*
X151999D01*
X151333Y289001D01*
Y291000D01*
Y289667D02*
X150000Y288334D01*
Y284335D02*
Y287001D01*
X152666Y284335D01*
X153332D01*
X153999Y285002D01*
Y286335D01*
X153332Y287001D01*
X153999Y283003D02*
Y280337D01*
X153332D01*
X150666Y283003D01*
X150000D01*
X174500Y254500D02*
Y258499D01*
X176499D01*
X177166Y257832D01*
Y256499D01*
X176499Y255833D01*
X174500D01*
X175833D02*
X177166Y254500D01*
X181165D02*
X178499D01*
X181165Y257166D01*
Y257832D01*
X180498Y258499D01*
X179165D01*
X178499Y257832D01*
X182497D02*
X183164Y258499D01*
X184497D01*
X185163Y257832D01*
Y257166D01*
X184497Y256499D01*
X185163Y255833D01*
Y255166D01*
X184497Y254500D01*
X183164D01*
X182497Y255166D01*
Y255833D01*
X183164Y256499D01*
X182497Y257166D01*
Y257832D01*
X183164Y256499D02*
X184497D01*
X201000Y251454D02*
Y255453D01*
X202999D01*
X203666Y254787D01*
Y253454D01*
X202999Y252787D01*
X201000D01*
X202333D02*
X203666Y251454D01*
X207664D02*
X204999D01*
X207664Y254120D01*
Y254787D01*
X206998Y255453D01*
X205665D01*
X204999Y254787D01*
X208997Y252121D02*
X209664Y251454D01*
X210997D01*
X211663Y252121D01*
Y254787D01*
X210997Y255453D01*
X209664D01*
X208997Y254787D01*
Y254120D01*
X209664Y253454D01*
X211663D01*
X205500Y279000D02*
X201501D01*
Y280999D01*
X202168Y281666D01*
X203501D01*
X204167Y280999D01*
Y279000D01*
Y280333D02*
X205500Y281666D01*
X202168Y282999D02*
X201501Y283665D01*
Y284998D01*
X202168Y285665D01*
X202834D01*
X203501Y284998D01*
Y284332D01*
Y284998D01*
X204167Y285665D01*
X204834D01*
X205500Y284998D01*
Y283665D01*
X204834Y282999D01*
X202168Y286997D02*
X201501Y287664D01*
Y288997D01*
X202168Y289663D01*
X204834D01*
X205500Y288997D01*
Y287664D01*
X204834Y286997D01*
X202168D01*
X243000Y257000D02*
Y260999D01*
X244999D01*
X245666Y260332D01*
Y258999D01*
X244999Y258333D01*
X243000D01*
X244333D02*
X245666Y257000D01*
X246999Y260332D02*
X247665Y260999D01*
X248998D01*
X249664Y260332D01*
Y259666D01*
X248998Y258999D01*
X248332D01*
X248998D01*
X249664Y258333D01*
Y257666D01*
X248998Y257000D01*
X247665D01*
X246999Y257666D01*
X250997Y257000D02*
X252330D01*
X251664D01*
Y260999D01*
X250997Y260332D01*
X283000Y255000D02*
Y258999D01*
X284999D01*
X285666Y258332D01*
Y256999D01*
X284999Y256333D01*
X283000D01*
X284333D02*
X285666Y255000D01*
X286999Y258332D02*
X287665Y258999D01*
X288998D01*
X289665Y258332D01*
Y257666D01*
X288998Y256999D01*
X288332D01*
X288998D01*
X289665Y256333D01*
Y255666D01*
X288998Y255000D01*
X287665D01*
X286999Y255666D01*
X293663Y255000D02*
X290997D01*
X293663Y257666D01*
Y258332D01*
X292997Y258999D01*
X291664D01*
X290997Y258332D01*
X217166Y152332D02*
X216499Y152999D01*
X215166D01*
X214500Y152332D01*
Y151666D01*
X215166Y150999D01*
X216499D01*
X217166Y150333D01*
Y149667D01*
X216499Y149000D01*
X215166D01*
X214500Y149667D01*
X218499Y152999D02*
Y149000D01*
X219832Y150333D01*
X221164Y149000D01*
Y152999D01*
X222497Y149000D02*
X223830D01*
X223164D01*
Y152999D01*
X222497Y152332D01*
X221815Y291332D02*
X221149Y291999D01*
X219816D01*
X219150Y291332D01*
Y290666D01*
X219816Y289999D01*
X221149D01*
X221815Y289333D01*
Y288666D01*
X221149Y288000D01*
X219816D01*
X219150Y288666D01*
X223148Y291999D02*
Y288000D01*
X224481Y289333D01*
X225814Y288000D01*
Y291999D01*
X229813Y288000D02*
X227147D01*
X229813Y290666D01*
Y291332D01*
X229146Y291999D01*
X227814D01*
X227147Y291332D01*
X265666D02*
X264999Y291999D01*
X263666D01*
X263000Y291332D01*
Y290666D01*
X263666Y289999D01*
X264999D01*
X265666Y289333D01*
Y288666D01*
X264999Y288000D01*
X263666D01*
X263000Y288666D01*
X266999Y291999D02*
Y288000D01*
X268332Y289333D01*
X269665Y288000D01*
Y291999D01*
X270997Y291332D02*
X271664Y291999D01*
X272997D01*
X273663Y291332D01*
Y290666D01*
X272997Y289999D01*
X272330D01*
X272997D01*
X273663Y289333D01*
Y288666D01*
X272997Y288000D01*
X271664D01*
X270997Y288666D01*
X179000Y167499D02*
Y164166D01*
X179666Y163500D01*
X180999D01*
X181666Y164166D01*
Y167499D01*
X182999Y163500D02*
X184332D01*
X183665D01*
Y167499D01*
X182999Y166832D01*
X233499Y202000D02*
X230166D01*
X229500Y201333D01*
Y200001D01*
X230166Y199334D01*
X233499D01*
X229500Y195335D02*
Y198001D01*
X232166Y195335D01*
X232832D01*
X233499Y196002D01*
Y197335D01*
X232832Y198001D01*
X168501Y307000D02*
X171834D01*
X172500Y307666D01*
Y308999D01*
X171834Y309666D01*
X168501D01*
X169168Y310999D02*
X168501Y311665D01*
Y312998D01*
X169168Y313665D01*
X169834D01*
X170501Y312998D01*
Y312332D01*
Y312998D01*
X171167Y313665D01*
X171834D01*
X172500Y312998D01*
Y311665D01*
X171834Y310999D01*
X113000Y111000D02*
X109001D01*
Y112999D01*
X109668Y113666D01*
X111001D01*
X111667Y112999D01*
Y111000D01*
Y112333D02*
X113000Y113666D01*
Y114999D02*
Y116332D01*
Y115665D01*
X109001D01*
X109668Y114999D01*
Y118331D02*
X109001Y118997D01*
Y120330D01*
X109668Y120997D01*
X112334D01*
X113000Y120330D01*
Y118997D01*
X112334Y118331D01*
X109668D01*
X313000Y258999D02*
Y255666D01*
X313666Y255000D01*
X314999D01*
X315666Y255666D01*
Y258999D01*
X319665D02*
X318332Y258332D01*
X316999Y256999D01*
Y255666D01*
X317665Y255000D01*
X318998D01*
X319665Y255666D01*
Y256333D01*
X318998Y256999D01*
X316999D01*
X316666Y287999D02*
X315333D01*
X315999D01*
Y284666D01*
X315333Y284000D01*
X314666D01*
X314000Y284666D01*
X317999Y284000D02*
X319332D01*
X318665D01*
Y287999D01*
X317999Y287332D01*
X321331Y284000D02*
X322664D01*
X321997D01*
Y287999D01*
X321331Y287332D01*
X366001Y145166D02*
Y143833D01*
Y144499D01*
X369334D01*
X370000Y143833D01*
Y143166D01*
X369334Y142500D01*
X370000Y146499D02*
Y147832D01*
Y147165D01*
X366001D01*
X366668Y146499D01*
X370000Y152497D02*
Y149831D01*
X367334Y152497D01*
X366668D01*
X366001Y151830D01*
Y150497D01*
X366668Y149831D01*
X284666Y152999D02*
X283333D01*
X283999D01*
Y149667D01*
X283333Y149000D01*
X282666D01*
X282000Y149667D01*
X285999Y149000D02*
X287332D01*
X286665D01*
Y152999D01*
X285999Y152332D01*
X291997Y152999D02*
X289331D01*
Y150999D01*
X290664Y151666D01*
X291330D01*
X291997Y150999D01*
Y149667D01*
X291330Y149000D01*
X289997D01*
X289331Y149667D01*
X404575Y219500D02*
X408573D01*
Y217501D01*
X407907Y216834D01*
X406574D01*
X405908Y217501D01*
Y219500D01*
Y218167D02*
X404575Y216834D01*
Y212836D02*
Y215501D01*
X407241Y212836D01*
X407907D01*
X408573Y213502D01*
Y214835D01*
X407907Y215501D01*
X404575Y208837D02*
Y211503D01*
X407241Y208837D01*
X407907D01*
X408573Y209503D01*
Y210836D01*
X407907Y211503D01*
X140652Y304304D02*
X141319Y304971D01*
Y306304D01*
X140652Y306970D01*
X139986D01*
X139319Y306304D01*
Y304971D01*
X138653Y304304D01*
X137986D01*
X137320Y304971D01*
Y306304D01*
X137986Y306970D01*
X135987Y302971D02*
X139986D01*
Y300972D01*
X139319Y300306D01*
X137986D01*
X137320Y300972D01*
Y302971D01*
Y298306D02*
Y296973D01*
X137986Y296307D01*
X139319D01*
X139986Y296973D01*
Y298306D01*
X139319Y298973D01*
X137986D01*
X137320Y298306D01*
Y294974D02*
X139986D01*
Y292974D01*
X139319Y292308D01*
X137320D01*
Y290975D02*
Y288976D01*
X137986Y288309D01*
X138653Y288976D01*
Y290309D01*
X139319Y290975D01*
X139986Y290309D01*
Y288309D01*
X137320Y286310D02*
Y284977D01*
X137986Y284311D01*
X139319D01*
X139986Y284977D01*
Y286310D01*
X139319Y286977D01*
X137986D01*
X137320Y286310D01*
X139986Y282978D02*
X137320D01*
X138653D01*
X139319Y282311D01*
X139986Y281645D01*
Y280978D01*
X137320Y276980D02*
Y278313D01*
X137986Y278979D01*
X139319D01*
X139986Y278313D01*
Y276980D01*
X139319Y276313D01*
X138653D01*
Y278979D01*
X141319Y272315D02*
X137320D01*
Y274314D01*
X137986Y274980D01*
X139319D01*
X139986Y274314D01*
Y272315D01*
X141319Y266983D02*
X137320D01*
Y264984D01*
X137986Y264317D01*
X138653D01*
X139319D01*
X139986Y264984D01*
Y266983D01*
Y262984D02*
X137986D01*
X137320Y262318D01*
Y260318D01*
X136653D01*
X135987Y260985D01*
Y261651D01*
X137320Y260318D02*
X139986D01*
X257000Y143499D02*
Y139500D01*
X259666D01*
X263665Y143499D02*
X260999D01*
Y139500D01*
X263665D01*
X260999Y141499D02*
X262332D01*
X264997Y143499D02*
Y139500D01*
X266997D01*
X267663Y140166D01*
Y142832D01*
X266997Y143499D01*
X264997D01*
X274994D02*
X273661D01*
X272995Y142832D01*
Y140166D01*
X273661Y139500D01*
X274994D01*
X275661Y140166D01*
Y142832D01*
X274994Y143499D01*
X276994Y139500D02*
Y143499D01*
X279659Y139500D01*
Y143499D01*
X265500Y127142D02*
Y129807D01*
X266833Y131140D01*
X268166Y129807D01*
Y127142D01*
Y129141D01*
X265500D01*
X269499Y131140D02*
X270832D01*
X270165D01*
Y127142D01*
X269499D01*
X270832D01*
X272831D02*
Y131140D01*
X275497Y127142D01*
Y131140D01*
X279496D02*
X278163Y130474D01*
X276830Y129141D01*
Y127808D01*
X277496Y127142D01*
X278829D01*
X279496Y127808D01*
Y128475D01*
X278829Y129141D01*
X276830D01*
D50*
X124900Y281650D02*
Y282970D01*
X124960Y281350D02*
Y283210D01*
Y290410D02*
Y291490D01*
X125020Y277450D02*
Y280150D01*
Y281170D02*
Y283390D01*
Y289450D02*
Y292030D01*
X125080Y262330D02*
Y262930D01*
Y265810D02*
Y267490D01*
Y269050D02*
Y271810D01*
Y273310D02*
Y276130D01*
Y277390D02*
Y280210D01*
Y280990D02*
Y283510D01*
Y285670D02*
Y288490D01*
Y289390D02*
Y292270D01*
Y294550D02*
Y297370D01*
Y297910D02*
Y301090D01*
Y304030D02*
Y307210D01*
X125140Y262210D02*
Y263050D01*
Y265570D02*
Y267490D01*
Y268990D02*
Y271810D01*
Y273310D02*
Y276130D01*
Y277390D02*
Y280150D01*
Y280870D02*
Y283630D01*
Y285670D02*
Y288430D01*
Y289390D02*
Y292450D01*
Y294550D02*
Y297370D01*
Y297910D02*
Y301090D01*
Y303970D02*
Y307210D01*
X125200Y262150D02*
Y263170D01*
Y265450D02*
Y267490D01*
Y268990D02*
Y271810D01*
Y273310D02*
Y276070D01*
Y277390D02*
Y280150D01*
Y280750D02*
Y283690D01*
Y285610D02*
Y288430D01*
Y289390D02*
Y292570D01*
Y294550D02*
Y297310D01*
Y297910D02*
Y301090D01*
Y303970D02*
Y307150D01*
X125260Y262090D02*
Y262510D01*
Y262810D02*
Y263230D01*
Y265330D02*
Y267430D01*
Y268990D02*
Y271750D01*
Y273250D02*
Y276070D01*
Y277330D02*
Y280150D01*
Y280690D02*
Y283750D01*
Y285610D02*
Y288430D01*
Y289330D02*
Y292690D01*
Y294550D02*
Y297310D01*
Y297910D02*
Y301090D01*
Y303970D02*
Y307150D01*
X125320Y262030D02*
Y262390D01*
Y262930D02*
Y263290D01*
Y265210D02*
Y267430D01*
Y268990D02*
Y271750D01*
Y273250D02*
Y276070D01*
Y277330D02*
Y280150D01*
Y280570D02*
Y283810D01*
Y285610D02*
Y288430D01*
Y289330D02*
Y292750D01*
Y294490D02*
Y297310D01*
Y297910D02*
Y301090D01*
Y303910D02*
Y307090D01*
X125380Y261970D02*
Y262330D01*
Y262990D02*
Y263290D01*
Y265090D02*
Y267430D01*
Y268930D02*
Y271750D01*
Y273250D02*
Y276070D01*
Y277330D02*
Y280090D01*
Y280510D02*
Y283870D01*
Y285610D02*
Y288370D01*
Y289330D02*
Y292810D01*
Y294490D02*
Y297310D01*
Y297910D02*
Y301090D01*
Y303910D02*
Y307090D01*
X125440Y261970D02*
Y262510D01*
Y262750D02*
Y262990D01*
Y263050D02*
Y263350D01*
Y265030D02*
Y267430D01*
Y268930D02*
Y271750D01*
Y273250D02*
Y276010D01*
Y277330D02*
Y280090D01*
Y280390D02*
Y283930D01*
Y285610D02*
Y288370D01*
Y289330D02*
Y292870D01*
Y294490D02*
Y297250D01*
Y297910D02*
Y301090D01*
Y303850D02*
Y307030D01*
X125500Y261910D02*
Y262210D01*
Y262270D02*
Y262570D01*
Y262750D02*
Y262990D01*
Y263110D02*
Y263350D01*
Y264970D02*
Y267370D01*
Y268930D02*
Y271690D01*
Y273190D02*
Y276010D01*
Y277270D02*
Y280090D01*
Y280330D02*
Y283990D01*
Y285550D02*
Y288370D01*
Y289270D02*
Y292870D01*
Y294490D02*
Y297250D01*
Y297910D02*
Y301090D01*
Y303850D02*
Y307030D01*
X125560Y261910D02*
Y262150D01*
Y262330D02*
Y262570D01*
Y262750D02*
Y262990D01*
Y263110D02*
Y263410D01*
Y264910D02*
Y267370D01*
Y268930D02*
Y271690D01*
Y273190D02*
Y276010D01*
Y277270D02*
Y280090D01*
Y280270D02*
Y283990D01*
Y285550D02*
Y288370D01*
Y289270D02*
Y292930D01*
Y294430D02*
Y297250D01*
Y297910D02*
Y301090D01*
Y303790D02*
Y306970D01*
X125620Y261910D02*
Y262150D01*
Y262330D02*
Y262570D01*
Y262750D02*
Y262990D01*
Y263170D02*
Y263410D01*
Y264850D02*
Y267370D01*
Y268870D02*
Y271690D01*
Y273190D02*
Y276010D01*
Y277270D02*
Y280030D01*
Y280210D02*
Y284050D01*
Y285550D02*
Y288310D01*
Y289270D02*
Y292930D01*
Y294430D02*
Y297250D01*
Y297910D02*
Y301090D01*
Y303790D02*
Y306970D01*
X125680Y261910D02*
Y262150D01*
Y262330D02*
Y262990D01*
Y263170D02*
Y263410D01*
Y264790D02*
Y267370D01*
Y268870D02*
Y271690D01*
Y273190D02*
Y275950D01*
Y277270D02*
Y280030D01*
Y280150D02*
Y284050D01*
Y285550D02*
Y288310D01*
Y289270D02*
Y292990D01*
Y294430D02*
Y297190D01*
Y297910D02*
Y301090D01*
Y303730D02*
Y306910D01*
X125740Y261910D02*
Y262150D01*
Y262390D02*
Y262990D01*
Y263170D02*
Y263410D01*
Y264730D02*
Y267310D01*
Y268870D02*
Y271630D01*
Y273130D02*
Y275950D01*
Y277210D02*
Y280030D01*
Y280090D02*
Y284050D01*
Y285490D02*
Y288310D01*
Y289210D02*
Y292990D01*
Y294430D02*
Y297190D01*
Y297910D02*
Y301090D01*
Y303730D02*
Y306910D01*
X125800Y261910D02*
Y262150D01*
Y262390D02*
Y262990D01*
Y263170D02*
Y263410D01*
Y264670D02*
Y267310D01*
Y268870D02*
Y271630D01*
Y273130D02*
Y275950D01*
Y277210D02*
Y284110D01*
Y285490D02*
Y288310D01*
Y289210D02*
Y292990D01*
Y294370D02*
Y297190D01*
Y297910D02*
Y301030D01*
Y303730D02*
Y306850D01*
X125860Y261910D02*
Y262150D01*
Y262330D02*
Y262630D01*
Y262750D02*
Y262990D01*
Y263170D02*
Y263410D01*
Y264610D02*
Y267310D01*
Y268810D02*
Y271630D01*
Y273130D02*
Y275950D01*
Y277210D02*
Y284110D01*
Y285490D02*
Y288250D01*
Y289210D02*
Y292990D01*
Y294370D02*
Y297190D01*
Y297910D02*
Y301030D01*
Y303670D02*
Y306790D01*
X125920Y261910D02*
Y262150D01*
Y262330D02*
Y262570D01*
Y262750D02*
Y262990D01*
Y263170D02*
Y263410D01*
Y264610D02*
Y267310D01*
Y268810D02*
Y271630D01*
Y273130D02*
Y275890D01*
Y277210D02*
Y284110D01*
Y285490D02*
Y288250D01*
Y289210D02*
Y292990D01*
Y294370D02*
Y297130D01*
Y297910D02*
Y301030D01*
Y303670D02*
Y306790D01*
X125980Y261910D02*
Y262150D01*
Y262330D02*
Y262570D01*
Y262750D02*
Y262990D01*
Y263170D02*
Y263410D01*
Y264550D02*
Y267250D01*
Y268810D02*
Y271570D01*
Y273070D02*
Y275890D01*
Y277150D02*
Y284110D01*
Y285430D02*
Y288250D01*
Y289150D02*
Y292990D01*
Y294370D02*
Y297130D01*
Y297910D02*
Y301030D01*
Y303610D02*
Y306730D01*
X126040Y261910D02*
Y262210D01*
Y262330D02*
Y262990D01*
Y263110D02*
Y263410D01*
Y264490D02*
Y267250D01*
Y268810D02*
Y271570D01*
Y273070D02*
Y275890D01*
Y277150D02*
Y284110D01*
Y285430D02*
Y288250D01*
Y289150D02*
Y292990D01*
Y294310D02*
Y297130D01*
Y297910D02*
Y301030D01*
Y303610D02*
Y306730D01*
X126100Y261970D02*
Y262210D01*
Y262330D02*
Y262990D01*
Y263110D02*
Y263350D01*
Y264490D02*
Y267250D01*
Y268750D02*
Y271570D01*
Y273070D02*
Y275890D01*
Y277150D02*
Y284110D01*
Y285430D02*
Y288190D01*
Y289150D02*
Y292990D01*
Y294310D02*
Y297130D01*
Y297910D02*
Y301030D01*
Y303550D02*
Y306670D01*
X126160Y261970D02*
Y262270D01*
Y262450D02*
Y262990D01*
Y263050D02*
Y263350D01*
Y264430D02*
Y267250D01*
Y268750D02*
Y271570D01*
Y273070D02*
Y275830D01*
Y277150D02*
Y284110D01*
Y285430D02*
Y288190D01*
Y289150D02*
Y292990D01*
Y294310D02*
Y297070D01*
Y297910D02*
Y301030D01*
Y303550D02*
Y306670D01*
X126220Y262030D02*
Y262330D01*
Y262990D02*
Y263290D01*
Y264430D02*
Y267190D01*
Y268750D02*
Y271510D01*
Y273010D02*
Y275830D01*
Y277090D02*
Y284110D01*
Y285370D02*
Y288190D01*
Y289090D02*
Y292990D01*
Y294310D02*
Y297070D01*
Y297910D02*
Y301030D01*
Y303550D02*
Y306610D01*
X126280Y262030D02*
Y262390D01*
Y262930D02*
Y263290D01*
Y264430D02*
Y267190D01*
Y268750D02*
Y271510D01*
Y273010D02*
Y275830D01*
Y277090D02*
Y284110D01*
Y285370D02*
Y288190D01*
Y289090D02*
Y292990D01*
Y294250D02*
Y297070D01*
Y297910D02*
Y301030D01*
Y303490D02*
Y306610D01*
X126340Y262090D02*
Y262570D01*
Y262750D02*
Y263230D01*
Y264370D02*
Y267190D01*
Y268690D02*
Y271510D01*
Y273010D02*
Y275830D01*
Y277090D02*
Y284110D01*
Y285370D02*
Y288130D01*
Y289090D02*
Y292990D01*
Y294250D02*
Y297070D01*
Y297910D02*
Y301030D01*
Y303490D02*
Y306550D01*
X126400Y262150D02*
Y263110D01*
Y264370D02*
Y267190D01*
Y268690D02*
Y271510D01*
Y273010D02*
Y275770D01*
Y277090D02*
Y284110D01*
Y285370D02*
Y288130D01*
Y289090D02*
Y292990D01*
Y294250D02*
Y297010D01*
Y297970D02*
Y301030D01*
Y303430D02*
Y306550D01*
X126460Y262270D02*
Y263050D01*
Y264370D02*
Y267130D01*
Y268690D02*
Y271450D01*
Y272950D02*
Y275770D01*
Y277030D02*
Y284110D01*
Y285310D02*
Y288130D01*
Y289030D02*
Y292990D01*
Y294250D02*
Y297010D01*
Y297970D02*
Y301030D01*
Y303430D02*
Y306490D01*
X126520Y262390D02*
Y262870D01*
Y264370D02*
Y267130D01*
Y268690D02*
Y271450D01*
Y272950D02*
Y275770D01*
Y277030D02*
Y284110D01*
Y285310D02*
Y288130D01*
Y289030D02*
Y292990D01*
Y294190D02*
Y297010D01*
Y297970D02*
Y301030D01*
Y303370D02*
Y306490D01*
X126580Y264310D02*
Y267130D01*
Y268630D02*
Y271450D01*
Y272950D02*
Y275770D01*
Y277030D02*
Y284110D01*
Y285310D02*
Y288070D01*
Y289030D02*
Y292930D01*
Y294190D02*
Y297010D01*
Y297970D02*
Y301030D01*
Y303370D02*
Y306430D01*
X126640Y264310D02*
Y267130D01*
Y268630D02*
Y271450D01*
Y272950D02*
Y275710D01*
Y277030D02*
Y284110D01*
Y285310D02*
Y288070D01*
Y289030D02*
Y292930D01*
Y294190D02*
Y296950D01*
Y297970D02*
Y301030D01*
Y303310D02*
Y306430D01*
X126700Y264310D02*
Y267070D01*
Y268630D02*
Y271390D01*
Y272890D02*
Y275710D01*
Y276970D02*
Y284050D01*
Y285250D02*
Y288070D01*
Y289030D02*
Y292930D01*
Y294190D02*
Y296950D01*
Y297970D02*
Y301030D01*
Y303310D02*
Y306370D01*
X126760Y264310D02*
Y267070D01*
Y268630D02*
Y271390D01*
Y272890D02*
Y275710D01*
Y276970D02*
Y280210D01*
Y280870D02*
Y284050D01*
Y285250D02*
Y288070D01*
Y289810D02*
Y292930D01*
Y294130D02*
Y296950D01*
Y297970D02*
Y306310D01*
X126820Y264250D02*
Y267070D01*
Y268570D02*
Y271390D01*
Y272890D02*
Y275710D01*
Y276970D02*
Y280090D01*
Y280990D02*
Y284050D01*
Y285250D02*
Y288010D01*
Y289930D02*
Y292930D01*
Y294130D02*
Y296950D01*
Y297970D02*
Y306310D01*
X126880Y264250D02*
Y267070D01*
Y268570D02*
Y271390D01*
Y272890D02*
Y275650D01*
Y276970D02*
Y279970D01*
Y281050D02*
Y284050D01*
Y285250D02*
Y288010D01*
Y289990D02*
Y292870D01*
Y294130D02*
Y296890D01*
Y297970D02*
Y306250D01*
X126940Y264250D02*
Y267010D01*
Y268570D02*
Y271330D01*
Y272830D02*
Y275650D01*
Y276910D02*
Y279910D01*
Y281050D02*
Y284050D01*
Y285190D02*
Y288010D01*
Y289990D02*
Y292870D01*
Y294130D02*
Y296890D01*
Y297970D02*
Y306250D01*
X127000Y264250D02*
Y267010D01*
Y268570D02*
Y271330D01*
Y272830D02*
Y275650D01*
Y276910D02*
Y279850D01*
Y281110D02*
Y283990D01*
Y285190D02*
Y288010D01*
Y289990D02*
Y292870D01*
Y294070D02*
Y296890D01*
Y297970D02*
Y306190D01*
X127060Y264190D02*
Y267010D01*
Y268510D02*
Y271330D01*
Y272830D02*
Y275650D01*
Y276910D02*
Y279790D01*
Y281110D02*
Y283990D01*
Y285190D02*
Y287950D01*
Y290050D02*
Y292870D01*
Y294070D02*
Y296890D01*
Y297970D02*
Y306190D01*
X127120Y264190D02*
Y267010D01*
Y268510D02*
Y271330D01*
Y272830D02*
Y275590D01*
Y276910D02*
Y279790D01*
Y281110D02*
Y283990D01*
Y285190D02*
Y287950D01*
Y290050D02*
Y292810D01*
Y294070D02*
Y296890D01*
Y297970D02*
Y306130D01*
X127180Y264190D02*
Y266950D01*
Y268510D02*
Y271270D01*
Y272770D02*
Y275590D01*
Y276850D02*
Y279730D01*
Y281110D02*
Y283990D01*
Y285130D02*
Y287950D01*
Y289990D02*
Y292810D01*
Y294070D02*
Y296830D01*
Y297970D02*
Y306130D01*
X127240Y264190D02*
Y266950D01*
Y268510D02*
Y271270D01*
Y272770D02*
Y275590D01*
Y276850D02*
Y279670D01*
Y281110D02*
Y283930D01*
Y285130D02*
Y287950D01*
Y289990D02*
Y292810D01*
Y294010D02*
Y296830D01*
Y297970D02*
Y306070D01*
X127300Y264130D02*
Y266950D01*
Y268450D02*
Y271270D01*
Y272770D02*
Y275590D01*
Y276850D02*
Y279670D01*
Y281110D02*
Y283930D01*
Y285130D02*
Y287890D01*
Y289990D02*
Y292810D01*
Y294010D02*
Y296830D01*
Y297970D02*
Y306070D01*
X127360Y264130D02*
Y266950D01*
Y268450D02*
Y271270D01*
Y272770D02*
Y275530D01*
Y276850D02*
Y279670D01*
Y281110D02*
Y283930D01*
Y285130D02*
Y287890D01*
Y289990D02*
Y292750D01*
Y294010D02*
Y296830D01*
Y297970D02*
Y306010D01*
X127420Y264130D02*
Y266890D01*
Y268450D02*
Y271210D01*
Y272710D02*
Y275530D01*
Y276790D02*
Y279610D01*
Y281110D02*
Y283930D01*
Y285070D02*
Y287890D01*
Y289930D02*
Y292750D01*
Y294010D02*
Y296770D01*
Y297970D02*
Y306010D01*
X127480Y264130D02*
Y266890D01*
Y268450D02*
Y271210D01*
Y272710D02*
Y275530D01*
Y276790D02*
Y279610D01*
Y281110D02*
Y283870D01*
Y285070D02*
Y287890D01*
Y289930D02*
Y292750D01*
Y293950D02*
Y296770D01*
Y297970D02*
Y305950D01*
X127540Y264070D02*
Y266890D01*
Y268390D02*
Y271210D01*
Y272710D02*
Y275530D01*
Y276790D02*
Y279610D01*
Y281050D02*
Y283870D01*
Y285070D02*
Y287830D01*
Y289930D02*
Y292750D01*
Y293950D02*
Y296770D01*
Y297970D02*
Y305890D01*
X127600Y264070D02*
Y266890D01*
Y268390D02*
Y271210D01*
Y272710D02*
Y275470D01*
Y276790D02*
Y279550D01*
Y281050D02*
Y283870D01*
Y285070D02*
Y287830D01*
Y289930D02*
Y292690D01*
Y293950D02*
Y296770D01*
Y297970D02*
Y305890D01*
X127660Y264070D02*
Y266830D01*
Y268390D02*
Y271150D01*
Y272650D02*
Y275470D01*
Y276730D02*
Y279550D01*
Y281050D02*
Y283870D01*
Y285010D02*
Y287830D01*
Y289870D02*
Y292690D01*
Y293950D02*
Y296710D01*
Y297970D02*
Y305830D01*
X127720Y264070D02*
Y266830D01*
Y268390D02*
Y271150D01*
Y272650D02*
Y275470D01*
Y276730D02*
Y279550D01*
Y281050D02*
Y283810D01*
Y285010D02*
Y287830D01*
Y289870D02*
Y292690D01*
Y293890D02*
Y296710D01*
Y297970D02*
Y305830D01*
X127780Y264010D02*
Y266830D01*
Y268330D02*
Y271150D01*
Y272650D02*
Y275470D01*
Y276730D02*
Y279550D01*
Y280990D02*
Y283810D01*
Y285010D02*
Y287770D01*
Y289870D02*
Y292690D01*
Y293890D02*
Y296710D01*
Y297970D02*
Y305770D01*
X127840Y264010D02*
Y266830D01*
Y268330D02*
Y271150D01*
Y272650D02*
Y275410D01*
Y276730D02*
Y279490D01*
Y280990D02*
Y283810D01*
Y285010D02*
Y287770D01*
Y289870D02*
Y292630D01*
Y293890D02*
Y296710D01*
Y297970D02*
Y305770D01*
X127900Y264010D02*
Y266770D01*
Y268330D02*
Y271090D01*
Y272590D02*
Y275410D01*
Y276670D02*
Y279490D01*
Y280990D02*
Y283810D01*
Y284950D02*
Y287770D01*
Y289810D02*
Y292630D01*
Y293890D02*
Y296650D01*
Y297970D02*
Y305710D01*
X127960Y264010D02*
Y266770D01*
Y268330D02*
Y271090D01*
Y272590D02*
Y275410D01*
Y276670D02*
Y279490D01*
Y280990D02*
Y283750D01*
Y284950D02*
Y287770D01*
Y289810D02*
Y292630D01*
Y293830D02*
Y296650D01*
Y297970D02*
Y305710D01*
X128020Y263950D02*
Y266770D01*
Y268270D02*
Y271090D01*
Y272590D02*
Y275410D01*
Y276670D02*
Y279490D01*
Y280990D02*
Y283750D01*
Y284950D02*
Y287710D01*
Y289810D02*
Y292630D01*
Y293830D02*
Y296650D01*
Y298030D02*
Y305650D01*
X128080Y263950D02*
Y266770D01*
Y268270D02*
Y271090D01*
Y272590D02*
Y275350D01*
Y276670D02*
Y279430D01*
Y280930D02*
Y283750D01*
Y284950D02*
Y287710D01*
Y289810D02*
Y292570D01*
Y293830D02*
Y296650D01*
Y298030D02*
Y305650D01*
X128140Y263950D02*
Y266770D01*
Y268270D02*
Y271030D01*
Y272530D02*
Y275350D01*
Y276610D02*
Y279430D01*
Y280930D02*
Y283750D01*
Y284890D02*
Y287710D01*
Y289810D02*
Y292570D01*
Y293830D02*
Y296590D01*
Y298030D02*
Y305590D01*
X128200Y263950D02*
Y266710D01*
Y268270D02*
Y271030D01*
Y272530D02*
Y275350D01*
Y276610D02*
Y279430D01*
Y280930D02*
Y283690D01*
Y284890D02*
Y287710D01*
Y289750D02*
Y292570D01*
Y293770D02*
Y296590D01*
Y298030D02*
Y305590D01*
X128260Y263890D02*
Y266710D01*
Y268210D02*
Y271030D01*
Y272530D02*
Y275350D01*
Y276610D02*
Y279430D01*
Y280930D02*
Y283690D01*
Y284890D02*
Y287650D01*
Y289750D02*
Y292570D01*
Y293770D02*
Y296590D01*
Y298030D02*
Y305530D01*
X128320Y263890D02*
Y266710D01*
Y268210D02*
Y271030D01*
Y272530D02*
Y275290D01*
Y276610D02*
Y279370D01*
Y280870D02*
Y283690D01*
Y284890D02*
Y287650D01*
Y289750D02*
Y292510D01*
Y293770D02*
Y296590D01*
Y298030D02*
Y305530D01*
X128380Y263890D02*
Y266710D01*
Y268210D02*
Y270970D01*
Y272470D02*
Y275290D01*
Y276550D02*
Y279370D01*
Y280870D02*
Y283690D01*
Y284830D02*
Y287650D01*
Y289750D02*
Y292510D01*
Y293770D02*
Y296530D01*
Y298030D02*
Y305470D01*
X128440Y263890D02*
Y266650D01*
Y268210D02*
Y270970D01*
Y272470D02*
Y275290D01*
Y276550D02*
Y279370D01*
Y280870D02*
Y283630D01*
Y284830D02*
Y287650D01*
Y289690D02*
Y292510D01*
Y293710D02*
Y296530D01*
Y298030D02*
Y305410D01*
X128500Y263830D02*
Y266650D01*
Y268150D02*
Y270970D01*
Y272470D02*
Y275290D01*
Y276550D02*
Y279370D01*
Y280870D02*
Y283630D01*
Y284830D02*
Y287590D01*
Y289690D02*
Y292510D01*
Y293710D02*
Y296530D01*
Y298030D02*
Y305410D01*
X128560Y263830D02*
Y266650D01*
Y268150D02*
Y270970D01*
Y272470D02*
Y275230D01*
Y276550D02*
Y279310D01*
Y280810D02*
Y283630D01*
Y284830D02*
Y287590D01*
Y289690D02*
Y292450D01*
Y293710D02*
Y296530D01*
Y298030D02*
Y305350D01*
X128620Y263830D02*
Y266650D01*
Y268150D02*
Y270910D01*
Y272410D02*
Y275230D01*
Y276490D02*
Y279310D01*
Y280810D02*
Y283630D01*
Y284770D02*
Y287590D01*
Y289690D02*
Y292450D01*
Y293710D02*
Y296470D01*
Y298030D02*
Y305350D01*
X128680Y263830D02*
Y266590D01*
Y268150D02*
Y270910D01*
Y272410D02*
Y275230D01*
Y276490D02*
Y279310D01*
Y280810D02*
Y283570D01*
Y284770D02*
Y287590D01*
Y289630D02*
Y292450D01*
Y293650D02*
Y296470D01*
Y298030D02*
Y300910D01*
Y302470D02*
Y305290D01*
X128740Y263770D02*
Y266590D01*
Y268090D02*
Y270910D01*
Y272410D02*
Y275230D01*
Y276490D02*
Y279310D01*
Y280810D02*
Y283570D01*
Y284770D02*
Y287530D01*
Y289630D02*
Y292450D01*
Y293650D02*
Y296470D01*
Y298030D02*
Y300910D01*
Y302410D02*
Y305290D01*
X128800Y263770D02*
Y266590D01*
Y268090D02*
Y270910D01*
Y272410D02*
Y275170D01*
Y276490D02*
Y279250D01*
Y280750D02*
Y283570D01*
Y284770D02*
Y287530D01*
Y289630D02*
Y292390D01*
Y293650D02*
Y296470D01*
Y298030D02*
Y300910D01*
Y302410D02*
Y305230D01*
X128860Y263770D02*
Y266590D01*
Y268090D02*
Y270850D01*
Y272350D02*
Y275170D01*
Y276430D02*
Y279250D01*
Y280750D02*
Y283570D01*
Y284710D02*
Y287530D01*
Y289630D02*
Y292390D01*
Y293650D02*
Y296410D01*
Y298030D02*
Y300910D01*
Y302350D02*
Y305230D01*
X128920Y263770D02*
Y266530D01*
Y268090D02*
Y270850D01*
Y272350D02*
Y275170D01*
Y276430D02*
Y279250D01*
Y280750D02*
Y283510D01*
Y284710D02*
Y287530D01*
Y289570D02*
Y292390D01*
Y293590D02*
Y296410D01*
Y298030D02*
Y300910D01*
Y302350D02*
Y305170D01*
X128980Y263710D02*
Y266530D01*
Y268030D02*
Y270850D01*
Y272350D02*
Y275170D01*
Y276430D02*
Y279250D01*
Y280750D02*
Y283510D01*
Y284710D02*
Y287470D01*
Y289570D02*
Y292390D01*
Y293590D02*
Y296410D01*
Y298030D02*
Y300910D01*
Y302290D02*
Y305170D01*
X129040Y263710D02*
Y266530D01*
Y268030D02*
Y270850D01*
Y272350D02*
Y275110D01*
Y276430D02*
Y279190D01*
Y280690D02*
Y283510D01*
Y284710D02*
Y287470D01*
Y289570D02*
Y292330D01*
Y293590D02*
Y296410D01*
Y298030D02*
Y300910D01*
Y302290D02*
Y305110D01*
X129100Y263710D02*
Y266530D01*
Y268030D02*
Y270790D01*
Y272290D02*
Y275110D01*
Y276370D02*
Y279190D01*
Y280690D02*
Y283510D01*
Y284650D02*
Y287470D01*
Y289570D02*
Y292330D01*
Y293590D02*
Y296350D01*
Y298030D02*
Y300850D01*
Y302230D02*
Y305110D01*
X129160Y263710D02*
Y266470D01*
Y268030D02*
Y270790D01*
Y272290D02*
Y275110D01*
Y276370D02*
Y279190D01*
Y280690D02*
Y283450D01*
Y284650D02*
Y287470D01*
Y289510D02*
Y292330D01*
Y293530D02*
Y296350D01*
Y298030D02*
Y300850D01*
Y302230D02*
Y305050D01*
X129220Y263650D02*
Y266470D01*
Y267970D02*
Y270790D01*
Y272290D02*
Y275110D01*
Y276370D02*
Y279190D01*
Y280690D02*
Y283450D01*
Y284650D02*
Y287410D01*
Y289510D02*
Y292330D01*
Y293530D02*
Y296350D01*
Y298030D02*
Y300850D01*
Y302170D02*
Y305050D01*
X129280Y263650D02*
Y266470D01*
Y267970D02*
Y270790D01*
Y272290D02*
Y275050D01*
Y276370D02*
Y279130D01*
Y280630D02*
Y283450D01*
Y284650D02*
Y287410D01*
Y289510D02*
Y292270D01*
Y293530D02*
Y296350D01*
Y298030D02*
Y300850D01*
Y302170D02*
Y304990D01*
X129340Y263650D02*
Y266470D01*
Y267970D02*
Y270730D01*
Y272230D02*
Y275050D01*
Y276310D02*
Y279130D01*
Y280630D02*
Y283450D01*
Y284590D02*
Y287410D01*
Y289510D02*
Y292270D01*
Y293530D02*
Y296290D01*
Y298030D02*
Y300850D01*
Y302110D02*
Y304930D01*
X129400Y263650D02*
Y266410D01*
Y267970D02*
Y270730D01*
Y272230D02*
Y275050D01*
Y276310D02*
Y279130D01*
Y280630D02*
Y283390D01*
Y284590D02*
Y287410D01*
Y289450D02*
Y292270D01*
Y293470D02*
Y296290D01*
Y298030D02*
Y300850D01*
Y302110D02*
Y304930D01*
X129460Y263590D02*
Y266410D01*
Y267910D02*
Y270730D01*
Y272230D02*
Y275050D01*
Y276310D02*
Y279130D01*
Y280630D02*
Y283390D01*
Y284590D02*
Y287350D01*
Y289450D02*
Y292270D01*
Y293470D02*
Y296290D01*
Y298030D02*
Y300850D01*
Y302110D02*
Y304870D01*
X129520Y263590D02*
Y266410D01*
Y267910D02*
Y270730D01*
Y272230D02*
Y274990D01*
Y276310D02*
Y279070D01*
Y280570D02*
Y283390D01*
Y284590D02*
Y287350D01*
Y289450D02*
Y292210D01*
Y293470D02*
Y296290D01*
Y298030D02*
Y300850D01*
Y302050D02*
Y304870D01*
X129580Y263590D02*
Y266410D01*
Y267910D02*
Y270670D01*
Y272170D02*
Y274990D01*
Y276250D02*
Y279070D01*
Y280570D02*
Y283390D01*
Y284530D02*
Y287350D01*
Y289450D02*
Y292210D01*
Y293470D02*
Y296230D01*
Y298090D02*
Y300850D01*
Y302050D02*
Y304810D01*
X129640Y263590D02*
Y266350D01*
Y267910D02*
Y270670D01*
Y272170D02*
Y274990D01*
Y276250D02*
Y279070D01*
Y280570D02*
Y283330D01*
Y284530D02*
Y287350D01*
Y289390D02*
Y292210D01*
Y293410D02*
Y296230D01*
Y298090D02*
Y300850D01*
Y301990D02*
Y304810D01*
X129700Y263530D02*
Y266350D01*
Y267850D02*
Y270670D01*
Y272170D02*
Y274990D01*
Y276250D02*
Y279070D01*
Y280570D02*
Y283330D01*
Y284530D02*
Y287290D01*
Y289390D02*
Y292210D01*
Y293410D02*
Y296230D01*
Y298090D02*
Y300850D01*
Y301990D02*
Y304750D01*
X129760Y263530D02*
Y266350D01*
Y267850D02*
Y270670D01*
Y272170D02*
Y274930D01*
Y276250D02*
Y279010D01*
Y280510D02*
Y283330D01*
Y284530D02*
Y287290D01*
Y289390D02*
Y292150D01*
Y293410D02*
Y296230D01*
Y298090D02*
Y300850D01*
Y301930D02*
Y304750D01*
X129820Y263530D02*
Y266350D01*
Y267850D02*
Y270610D01*
Y272110D02*
Y274930D01*
Y276190D02*
Y279010D01*
Y280510D02*
Y283330D01*
Y284470D02*
Y287290D01*
Y289390D02*
Y292150D01*
Y293410D02*
Y296170D01*
Y298090D02*
Y300850D01*
Y301930D02*
Y304690D01*
X129880Y263530D02*
Y266290D01*
Y267850D02*
Y270610D01*
Y272110D02*
Y274930D01*
Y276190D02*
Y279010D01*
Y280510D02*
Y283270D01*
Y284470D02*
Y287290D01*
Y289330D02*
Y292150D01*
Y293350D02*
Y296170D01*
Y298090D02*
Y300850D01*
Y301870D02*
Y304690D01*
X129940Y263470D02*
Y266290D01*
Y267790D02*
Y270610D01*
Y272110D02*
Y274930D01*
Y276190D02*
Y279010D01*
Y280510D02*
Y283270D01*
Y284470D02*
Y287230D01*
Y289330D02*
Y292150D01*
Y293350D02*
Y296170D01*
Y298090D02*
Y300850D01*
Y301870D02*
Y304630D01*
X130000Y263470D02*
Y266290D01*
Y267790D02*
Y270610D01*
Y272110D02*
Y274870D01*
Y276190D02*
Y278950D01*
Y280450D02*
Y283270D01*
Y284470D02*
Y287230D01*
Y289330D02*
Y292090D01*
Y293350D02*
Y296170D01*
Y298090D02*
Y300850D01*
Y301810D02*
Y304630D01*
X130060Y263470D02*
Y266290D01*
Y267790D02*
Y270610D01*
Y272050D02*
Y274870D01*
Y276130D02*
Y278950D01*
Y280450D02*
Y283270D01*
Y284410D02*
Y287230D01*
Y289330D02*
Y292090D01*
Y293350D02*
Y296110D01*
Y298090D02*
Y300850D01*
Y301810D02*
Y304570D01*
X130120Y263470D02*
Y266230D01*
Y267730D02*
Y270550D01*
Y272050D02*
Y274870D01*
Y276130D02*
Y278950D01*
Y280450D02*
Y283210D01*
Y284410D02*
Y287230D01*
Y289270D02*
Y292090D01*
Y293350D02*
Y296110D01*
Y298090D02*
Y300850D01*
Y301810D02*
Y304570D01*
X130180Y263410D02*
Y266230D01*
Y267730D02*
Y270550D01*
Y272050D02*
Y274870D01*
Y276130D02*
Y278950D01*
Y280450D02*
Y283210D01*
Y284410D02*
Y287170D01*
Y289270D02*
Y292030D01*
Y293290D02*
Y296110D01*
Y298090D02*
Y300790D01*
Y301750D02*
Y304510D01*
X130240Y263410D02*
Y266230D01*
Y267670D02*
Y270550D01*
Y271990D02*
Y274810D01*
Y276130D02*
Y278890D01*
Y280390D02*
Y283210D01*
Y284410D02*
Y287170D01*
Y289270D02*
Y292030D01*
Y293290D02*
Y296110D01*
Y298090D02*
Y300790D01*
Y301750D02*
Y304450D01*
X130300Y263410D02*
Y266230D01*
Y267670D02*
Y270550D01*
Y271930D02*
Y274810D01*
Y276070D02*
Y278890D01*
Y280390D02*
Y283210D01*
Y284350D02*
Y287170D01*
Y289270D02*
Y292030D01*
Y293290D02*
Y296050D01*
Y298090D02*
Y300790D01*
Y301690D02*
Y304450D01*
X130360Y263410D02*
Y266230D01*
Y267610D02*
Y270550D01*
Y271930D02*
Y274810D01*
Y276070D02*
Y278890D01*
Y280390D02*
Y283150D01*
Y284350D02*
Y287170D01*
Y289210D02*
Y292030D01*
Y293230D02*
Y296050D01*
Y298090D02*
Y300790D01*
Y301690D02*
Y304390D01*
X130420Y263350D02*
Y266230D01*
Y267610D02*
Y270550D01*
Y271870D02*
Y274810D01*
Y276070D02*
Y278890D01*
Y280390D02*
Y283150D01*
Y284350D02*
Y287110D01*
Y289210D02*
Y291970D01*
Y293230D02*
Y296050D01*
Y298090D02*
Y300790D01*
Y301630D02*
Y304390D01*
X130480Y263350D02*
Y266290D01*
Y267550D02*
Y270610D01*
Y271810D02*
Y274750D01*
Y276070D02*
Y278830D01*
Y280330D02*
Y283150D01*
Y284350D02*
Y287110D01*
Y289210D02*
Y291970D01*
Y293230D02*
Y296050D01*
Y298090D02*
Y300790D01*
Y301630D02*
Y304330D01*
X130540Y263350D02*
Y266290D01*
Y267490D02*
Y270610D01*
Y271750D02*
Y274750D01*
Y276010D02*
Y278830D01*
Y280330D02*
Y283150D01*
Y284290D02*
Y287110D01*
Y289210D02*
Y291970D01*
Y293230D02*
Y295990D01*
Y298090D02*
Y300790D01*
Y301570D02*
Y304330D01*
X130600Y263350D02*
Y266350D01*
Y267370D02*
Y270670D01*
Y271690D02*
Y274750D01*
Y276010D02*
Y278830D01*
Y280330D02*
Y283090D01*
Y284290D02*
Y287110D01*
Y289150D02*
Y291970D01*
Y293170D02*
Y295990D01*
Y298090D02*
Y300790D01*
Y301570D02*
Y304270D01*
X130660Y263290D02*
Y266410D01*
Y267310D02*
Y270730D01*
Y271570D02*
Y274750D01*
Y276010D02*
Y278830D01*
Y280330D02*
Y283090D01*
Y284290D02*
Y287050D01*
Y289150D02*
Y291910D01*
Y293170D02*
Y295990D01*
Y298090D02*
Y300790D01*
Y301510D02*
Y304270D01*
X130720Y263290D02*
Y266530D01*
Y267130D02*
Y270850D01*
Y271450D02*
Y274690D01*
Y276010D02*
Y278770D01*
Y280270D02*
Y283090D01*
Y284290D02*
Y287050D01*
Y289150D02*
Y291910D01*
Y293170D02*
Y295990D01*
Y298090D02*
Y300790D01*
Y301510D02*
Y304210D01*
X130780Y263290D02*
Y274690D01*
Y275950D02*
Y278770D01*
Y280270D02*
Y283090D01*
Y284230D02*
Y287050D01*
Y288010D02*
Y291910D01*
Y293170D02*
Y295930D01*
Y298090D02*
Y300790D01*
Y301450D02*
Y304210D01*
X130840Y263290D02*
Y274690D01*
Y275950D02*
Y278770D01*
Y280270D02*
Y283030D01*
Y284230D02*
Y287050D01*
Y287950D02*
Y291910D01*
Y293110D02*
Y295930D01*
Y298090D02*
Y300790D01*
Y301450D02*
Y304150D01*
X130900Y263290D02*
Y274690D01*
Y275950D02*
Y278770D01*
Y280270D02*
Y283030D01*
Y284230D02*
Y286990D01*
Y287950D02*
Y291850D01*
Y293110D02*
Y295930D01*
Y298090D02*
Y300790D01*
Y301450D02*
Y304150D01*
X130960Y263290D02*
Y274630D01*
Y275950D02*
Y278710D01*
Y280210D02*
Y283030D01*
Y284230D02*
Y286990D01*
Y287950D02*
Y291850D01*
Y293110D02*
Y295930D01*
Y298090D02*
Y300790D01*
Y301390D02*
Y304090D01*
X131020Y263230D02*
Y274630D01*
Y275890D02*
Y278710D01*
Y280210D02*
Y283030D01*
Y284170D02*
Y286990D01*
Y287950D02*
Y291850D01*
Y293110D02*
Y295870D01*
Y298090D02*
Y300790D01*
Y301390D02*
Y304090D01*
X131080Y263230D02*
Y274630D01*
Y275890D02*
Y278710D01*
Y280210D02*
Y282970D01*
Y284170D02*
Y286990D01*
Y287890D02*
Y291850D01*
Y293050D02*
Y295870D01*
Y298090D02*
Y300790D01*
Y301330D02*
Y304030D01*
X131140Y263230D02*
Y274630D01*
Y275890D02*
Y278710D01*
Y280210D02*
Y282970D01*
Y284170D02*
Y286930D01*
Y287890D02*
Y291790D01*
Y293050D02*
Y295870D01*
Y298090D02*
Y300790D01*
Y301330D02*
Y303970D01*
X131200Y263230D02*
Y274570D01*
Y275890D02*
Y278650D01*
Y280150D02*
Y282970D01*
Y284170D02*
Y286930D01*
Y287890D02*
Y291790D01*
Y293050D02*
Y295870D01*
Y298150D02*
Y300790D01*
Y301270D02*
Y303970D01*
X131260Y263230D02*
Y274570D01*
Y275830D02*
Y278650D01*
Y280150D02*
Y282970D01*
Y284110D02*
Y286930D01*
Y287890D02*
Y291790D01*
Y293050D02*
Y295810D01*
Y298150D02*
Y300730D01*
Y301270D02*
Y303910D01*
X131320Y263230D02*
Y274570D01*
Y275830D02*
Y278650D01*
Y280150D02*
Y282910D01*
Y284110D02*
Y286930D01*
Y287830D02*
Y291790D01*
Y292990D02*
Y295810D01*
Y298150D02*
Y300730D01*
Y301210D02*
Y303910D01*
X131380Y263230D02*
Y274570D01*
Y275830D02*
Y278650D01*
Y280150D02*
Y282910D01*
Y284110D02*
Y286870D01*
Y287830D02*
Y291730D01*
Y292990D02*
Y295810D01*
Y298150D02*
Y300730D01*
Y301210D02*
Y303850D01*
X131440Y263230D02*
Y274510D01*
Y275830D02*
Y278590D01*
Y280090D02*
Y282910D01*
Y284110D02*
Y286870D01*
Y287830D02*
Y291730D01*
Y292990D02*
Y295810D01*
Y298150D02*
Y300730D01*
Y301150D02*
Y303850D01*
X131500Y263230D02*
Y274510D01*
Y275770D02*
Y278590D01*
Y280090D02*
Y282910D01*
Y284050D02*
Y286870D01*
Y287830D02*
Y291730D01*
Y292990D02*
Y295750D01*
Y298150D02*
Y300730D01*
Y301150D02*
Y303790D01*
X131560Y263230D02*
Y274510D01*
Y275770D02*
Y278590D01*
Y280090D02*
Y282850D01*
Y284050D02*
Y286870D01*
Y287770D02*
Y291730D01*
Y292930D02*
Y295750D01*
Y298150D02*
Y300730D01*
Y301150D02*
Y303790D01*
X131620Y263230D02*
Y267490D01*
Y267550D02*
Y271630D01*
Y271690D02*
Y274510D01*
Y275770D02*
Y278590D01*
Y280090D02*
Y282850D01*
Y284050D02*
Y286810D01*
Y287770D02*
Y291670D01*
Y292930D02*
Y295750D01*
Y298150D02*
Y300730D01*
Y301090D02*
Y303730D01*
X131680Y263290D02*
Y267430D01*
Y267550D02*
Y274450D01*
Y275770D02*
Y278530D01*
Y280030D02*
Y282850D01*
Y284050D02*
Y286810D01*
Y287770D02*
Y291670D01*
Y292930D02*
Y295750D01*
Y298150D02*
Y300730D01*
Y301090D02*
Y303730D01*
X131740Y263290D02*
Y267370D01*
Y267550D02*
Y271570D01*
Y271630D02*
Y274450D01*
Y275710D02*
Y278530D01*
Y280030D02*
Y282850D01*
Y283990D02*
Y286810D01*
Y287770D02*
Y291670D01*
Y292930D02*
Y295690D01*
Y298150D02*
Y300730D01*
Y301030D02*
Y303670D01*
X131800Y263290D02*
Y267310D01*
Y267610D02*
Y271510D01*
Y271630D02*
Y274450D01*
Y275710D02*
Y278530D01*
Y280030D02*
Y282790D01*
Y283990D02*
Y286810D01*
Y287710D02*
Y291670D01*
Y292870D02*
Y295690D01*
Y298150D02*
Y300730D01*
Y301030D02*
Y303670D01*
X131860Y263290D02*
Y267250D01*
Y267610D02*
Y271450D01*
Y271630D02*
Y274450D01*
Y275710D02*
Y278530D01*
Y280030D02*
Y282790D01*
Y283990D02*
Y286750D01*
Y287710D02*
Y291610D01*
Y292870D02*
Y295690D01*
Y298150D02*
Y300730D01*
Y300970D02*
Y303610D01*
X131920Y263350D02*
Y267190D01*
Y267610D02*
Y271390D01*
Y271570D02*
Y274390D01*
Y275710D02*
Y278470D01*
Y279970D02*
Y282790D01*
Y283990D02*
Y286750D01*
Y287710D02*
Y291610D01*
Y292870D02*
Y295690D01*
Y298150D02*
Y300730D01*
Y300970D02*
Y303610D01*
X131980Y263350D02*
Y267070D01*
Y267670D02*
Y271330D01*
Y271570D02*
Y274390D01*
Y275650D02*
Y278470D01*
Y279970D02*
Y282790D01*
Y283930D02*
Y286750D01*
Y287710D02*
Y291610D01*
Y292870D02*
Y295630D01*
Y298150D02*
Y300730D01*
Y300910D02*
Y303550D01*
X132040Y263410D02*
Y267010D01*
Y267730D02*
Y271210D01*
Y271570D02*
Y274390D01*
Y275650D02*
Y278470D01*
Y279970D02*
Y282730D01*
Y283930D02*
Y286750D01*
Y287650D02*
Y291610D01*
Y292870D02*
Y295630D01*
Y298150D02*
Y300730D01*
Y300910D02*
Y303490D01*
X132100Y263470D02*
Y266950D01*
Y267730D02*
Y271150D01*
Y271570D02*
Y274390D01*
Y275650D02*
Y278470D01*
Y279970D02*
Y282730D01*
Y283930D02*
Y286690D01*
Y287650D02*
Y291550D01*
Y292810D02*
Y295630D01*
Y298150D02*
Y300730D01*
Y300850D02*
Y303490D01*
X132160Y263470D02*
Y266830D01*
Y267790D02*
Y271090D01*
Y271510D02*
Y274330D01*
Y275650D02*
Y278410D01*
Y279910D02*
Y282730D01*
Y283930D02*
Y286690D01*
Y287650D02*
Y291550D01*
Y292810D02*
Y295630D01*
Y298150D02*
Y300730D01*
Y300850D02*
Y303430D01*
X132220Y263530D02*
Y266770D01*
Y267850D02*
Y270970D01*
Y271510D02*
Y274330D01*
Y275650D02*
Y278410D01*
Y279910D02*
Y282730D01*
Y283870D02*
Y286690D01*
Y287650D02*
Y291550D01*
Y292810D02*
Y295570D01*
Y298150D02*
Y300730D01*
Y300790D02*
Y303430D01*
X132280Y263650D02*
Y266650D01*
Y267910D02*
Y270910D01*
Y271510D02*
Y274330D01*
Y275590D02*
Y278410D01*
Y279910D02*
Y282670D01*
Y283870D02*
Y286690D01*
Y287590D02*
Y291550D01*
Y292810D02*
Y295570D01*
Y298150D02*
Y300730D01*
Y300790D02*
Y303370D01*
X132340Y263710D02*
Y266530D01*
Y267970D02*
Y270790D01*
Y271510D02*
Y274330D01*
Y275590D02*
Y278410D01*
Y279910D02*
Y282670D01*
Y283870D02*
Y286630D01*
Y287590D02*
Y291490D01*
Y292750D02*
Y295570D01*
Y298150D02*
Y300730D01*
Y300790D02*
Y303370D01*
X132400Y263830D02*
Y266410D01*
Y268090D02*
Y270670D01*
Y271450D02*
Y274270D01*
Y275590D02*
Y278350D01*
Y279850D02*
Y282670D01*
Y283870D02*
Y286630D01*
Y287590D02*
Y291490D01*
Y292750D02*
Y295570D01*
Y298150D02*
Y300670D01*
Y300730D02*
Y303310D01*
X132460Y263950D02*
Y266230D01*
Y268210D02*
Y270490D01*
Y288730D02*
Y291490D01*
Y292750D02*
Y295510D01*
Y298150D02*
Y300670D01*
Y300730D02*
Y303310D01*
X132520Y264130D02*
Y266050D01*
Y268330D02*
Y270310D01*
Y288670D02*
Y291490D01*
Y292750D02*
Y295510D01*
Y298150D02*
Y303250D01*
X132580Y264370D02*
Y265810D01*
Y268570D02*
Y270070D01*
Y288670D02*
Y291430D01*
Y292690D02*
Y295510D01*
Y298150D02*
Y303250D01*
X132640Y264790D02*
Y265390D01*
Y269050D02*
Y269650D01*
Y288670D02*
Y291430D01*
Y292690D02*
Y295510D01*
Y298150D02*
Y303190D01*
X132700Y288670D02*
Y291430D01*
Y292690D02*
Y295450D01*
Y298150D02*
Y303190D01*
X132760Y288610D02*
Y291430D01*
Y292690D02*
Y295450D01*
Y298210D02*
Y303130D01*
X132820Y288610D02*
Y291370D01*
Y292630D02*
Y295450D01*
Y298210D02*
Y303130D01*
X132880Y288610D02*
Y291370D01*
Y292630D02*
Y295450D01*
Y298210D02*
Y303070D01*
X132940Y288610D02*
Y291370D01*
Y292630D02*
Y295390D01*
Y298210D02*
Y303010D01*
X133000Y288550D02*
Y291370D01*
Y292630D02*
Y295390D01*
Y298210D02*
Y303010D01*
X133060Y288550D02*
Y291310D01*
Y292570D02*
Y295390D01*
Y298210D02*
Y302950D01*
X133120Y288550D02*
Y291310D01*
Y292570D02*
Y295390D01*
Y298210D02*
Y302890D01*
X133180Y288490D02*
Y291310D01*
Y292570D02*
Y295330D01*
Y298210D02*
Y302890D01*
X133240Y288490D02*
Y291310D01*
Y292570D02*
Y295330D01*
Y298210D02*
Y302830D01*
X133300Y288490D02*
Y291250D01*
Y292510D02*
Y295330D01*
Y298210D02*
Y302770D01*
X133360Y288490D02*
Y291250D01*
Y292510D02*
Y295330D01*
Y298210D02*
Y302770D01*
X133420Y288430D02*
Y291250D01*
Y292510D02*
Y295270D01*
Y298210D02*
Y302710D01*
X133480Y288430D02*
Y291250D01*
Y292510D02*
Y295270D01*
Y298210D02*
Y302650D01*
X133540Y288430D02*
Y291190D01*
Y292450D02*
Y295270D01*
Y298210D02*
Y302590D01*
X133600Y288430D02*
Y291190D01*
Y292450D02*
Y295270D01*
Y298210D02*
Y302530D01*
X133660Y288370D02*
Y291190D01*
Y292450D02*
Y295210D01*
Y298210D02*
Y302470D01*
X133720Y288370D02*
Y291190D01*
Y292450D02*
Y295210D01*
Y298210D02*
Y302410D01*
X133780Y288370D02*
Y291130D01*
Y292390D02*
Y295210D01*
Y298210D02*
Y302350D01*
X133840Y288370D02*
Y291130D01*
Y292390D02*
Y295210D01*
Y298210D02*
Y302290D01*
X133900Y288310D02*
Y291130D01*
Y292390D02*
Y295150D01*
Y298210D02*
Y302230D01*
X133960Y288310D02*
Y291130D01*
Y292390D02*
Y295150D01*
Y298210D02*
Y302170D01*
X134020Y288310D02*
Y291070D01*
Y292330D02*
Y295150D01*
Y298210D02*
Y302110D01*
X134080Y288310D02*
Y291070D01*
Y292330D02*
Y295150D01*
Y298210D02*
Y301990D01*
X134140Y288250D02*
Y291070D01*
Y292330D02*
Y295090D01*
Y298210D02*
Y301930D01*
X134200Y288250D02*
Y291070D01*
Y292330D02*
Y295090D01*
Y298210D02*
Y301810D01*
X134260Y288250D02*
Y291010D01*
Y292270D02*
Y295090D01*
Y298210D02*
Y301750D01*
X134320Y288250D02*
Y291010D01*
Y292270D02*
Y295090D01*
Y298210D02*
Y301630D01*
X134380Y288190D02*
Y291010D01*
Y292270D02*
Y295030D01*
Y298270D02*
Y301510D01*
X134440Y288190D02*
Y291010D01*
Y292270D02*
Y295030D01*
Y298270D02*
Y301390D01*
X134500Y288190D02*
Y290950D01*
Y292210D02*
Y295030D01*
Y298270D02*
Y301270D01*
X134560Y288190D02*
Y290950D01*
Y292210D02*
Y295030D01*
Y298270D02*
Y301150D01*
X134620Y288130D02*
Y290950D01*
Y292210D02*
Y294970D01*
Y298270D02*
Y300970D01*
X134680Y288130D02*
Y290950D01*
Y292210D02*
Y294970D01*
Y298270D02*
Y300730D01*
X134740Y292150D02*
Y294970D01*
Y298270D02*
Y300490D01*
D51*
X339928Y249117D02*
X343727D01*
X339928Y246585D01*
X343727D01*
X339928Y244685D02*
Y243419D01*
X340561Y242786D01*
X341827D01*
X342461Y243419D01*
Y244685D01*
X341827Y245319D01*
X340561D01*
X339928Y244685D01*
X342461Y241520D02*
X339928D01*
X341194D01*
X341827Y240887D01*
X342461Y240253D01*
Y239620D01*
X343094Y237088D02*
X342461D01*
Y237721D01*
Y236455D01*
Y237088D01*
X340561D01*
X339928Y236455D01*
X343727Y234555D02*
X339928D01*
X341827D01*
X342461Y233922D01*
Y232656D01*
X341827Y232023D01*
X339928D01*
Y228857D02*
Y230123D01*
X340561Y230757D01*
X341827D01*
X342461Y230123D01*
Y228857D01*
X341827Y228224D01*
X341194D01*
Y230757D01*
X342461Y226325D02*
Y225058D01*
X341827Y224425D01*
X339928D01*
Y226325D01*
X340561Y226958D01*
X341194Y226325D01*
Y224425D01*
X339928Y223159D02*
Y221260D01*
X340561Y220626D01*
X341194Y221260D01*
Y222526D01*
X341827Y223159D01*
X342461Y222526D01*
Y220626D01*
X343094Y218727D02*
X342461D01*
Y219360D01*
Y218094D01*
Y218727D01*
X340561D01*
X339928Y218094D01*
Y214295D02*
Y215562D01*
X340561Y216195D01*
X341827D01*
X342461Y215562D01*
Y214295D01*
X341827Y213662D01*
X341194D01*
Y216195D01*
X342461Y212396D02*
X339928D01*
X341194D01*
X341827Y211763D01*
X342461Y211130D01*
Y210496D01*
X339928Y208597D02*
X342461D01*
Y206698D01*
X341827Y206065D01*
X339928D01*
X343727Y201000D02*
X340561D01*
X339928Y200366D01*
Y199100D01*
X340561Y198467D01*
X343727D01*
X339928Y197201D02*
X342461D01*
Y195301D01*
X341827Y194668D01*
X339928D01*
Y193402D02*
Y192136D01*
Y192769D01*
X342461D01*
Y193402D01*
Y190236D02*
X339928Y188970D01*
X342461Y187704D01*
X339928Y184538D02*
Y185804D01*
X340561Y186438D01*
X341827D01*
X342461Y185804D01*
Y184538D01*
X341827Y183905D01*
X341194D01*
Y186438D01*
X342461Y182639D02*
X339928D01*
X341194D01*
X341827Y182006D01*
X342461Y181373D01*
Y180739D01*
X339928Y178840D02*
Y176941D01*
X340561Y176308D01*
X341194Y176941D01*
Y178207D01*
X341827Y178840D01*
X342461Y178207D01*
Y176308D01*
X339928Y175041D02*
Y173775D01*
Y174408D01*
X342461D01*
Y175041D01*
X343094Y171242D02*
X342461D01*
Y171876D01*
Y170609D01*
Y171242D01*
X340561D01*
X339928Y170609D01*
X342461Y168710D02*
X340561D01*
X339928Y168077D01*
Y166177D01*
X339295D01*
X338662Y166811D01*
Y167444D01*
X339928Y166177D02*
X342461D01*
X336282Y244052D02*
Y242786D01*
Y243419D01*
X332483D01*
Y244052D01*
Y242786D01*
X336282Y238354D02*
Y240887D01*
X332483D01*
Y238354D01*
X334383Y240887D02*
Y239620D01*
X336282Y234555D02*
Y237088D01*
X332483D01*
Y234555D01*
X334383Y237088D02*
Y235822D01*
X336282Y230757D02*
Y233289D01*
X332483D01*
Y230757D01*
X334383Y233289D02*
Y232023D01*
X332483Y225692D02*
X336282D01*
X335016Y224425D01*
X336282Y223159D01*
X332483D01*
Y221893D02*
Y220626D01*
Y221260D01*
X335016D01*
Y221893D01*
Y216195D02*
Y218094D01*
X334383Y218727D01*
X333116D01*
X332483Y218094D01*
Y216195D01*
X335016Y214928D02*
X332483D01*
X333750D01*
X334383Y214295D01*
X335016Y213662D01*
Y213029D01*
X332483Y210496D02*
Y209230D01*
X333116Y208597D01*
X334383D01*
X335016Y209230D01*
Y210496D01*
X334383Y211130D01*
X333116D01*
X332483Y210496D01*
Y207331D02*
X335016D01*
Y206698D01*
X334383Y206065D01*
X332483D01*
X334383D01*
X335016Y205432D01*
X334383Y204798D01*
X332483D01*
Y202899D02*
Y201633D01*
X333116Y201000D01*
X334383D01*
X335016Y201633D01*
Y202899D01*
X334383Y203532D01*
X333116D01*
X332483Y202899D01*
X335016Y199733D02*
X333116D01*
X332483Y199100D01*
Y197201D01*
X335016D01*
X332483Y195934D02*
Y194035D01*
X333116Y193402D01*
X333750Y194035D01*
Y195301D01*
X334383Y195934D01*
X335016Y195301D01*
Y193402D01*
X332483Y190236D02*
Y191503D01*
X333116Y192136D01*
X334383D01*
X335016Y191503D01*
Y190236D01*
X334383Y189603D01*
X333750D01*
Y192136D01*
X332483Y182006D02*
Y184538D01*
X335016Y182006D01*
X335649D01*
X336282Y182639D01*
Y183905D01*
X335649Y184538D01*
Y180739D02*
X336282Y180106D01*
Y178840D01*
X335649Y178207D01*
X333116D01*
X332483Y178840D01*
Y180106D01*
X333116Y180739D01*
X335649D01*
X332483Y176941D02*
Y175674D01*
Y176308D01*
X336282D01*
X335649Y176941D01*
X333116Y173775D02*
X332483Y173142D01*
Y171876D01*
X333116Y171242D01*
X335649D01*
X336282Y171876D01*
Y173142D01*
X335649Y173775D01*
X335016D01*
X334383Y173142D01*
Y171242D01*
M02*
