G04 Layer_Color=128*
%FSLAX25Y25*%
%MOIN*%
G70*
G01*
G75*
%ADD13R,0.06000X0.06000*%
%ADD15R,0.03543X0.02756*%
%ADD20R,0.02756X0.03543*%
%ADD41R,0.02953X0.05905*%
%ADD42O,0.05905X0.01378*%
%ADD43R,0.05905X0.01378*%
D13*
X417000Y205000D02*
D03*
X430500D02*
D03*
X417000Y217500D02*
D03*
X430500D02*
D03*
D15*
X371500Y144547D02*
D03*
Y150453D02*
D03*
X375000Y212047D02*
D03*
Y217953D02*
D03*
X405000Y176547D02*
D03*
Y182453D02*
D03*
X400500Y164166D02*
D03*
Y170071D02*
D03*
X360000Y167595D02*
D03*
Y173500D02*
D03*
X405000Y243047D02*
D03*
Y248953D02*
D03*
X401000Y230547D02*
D03*
Y236453D02*
D03*
X355898Y218547D02*
D03*
Y224453D02*
D03*
D20*
X396291Y200453D02*
D03*
X390386D02*
D03*
X405621Y195000D02*
D03*
X399715D02*
D03*
X394500Y266000D02*
D03*
X388595D02*
D03*
X403953Y260354D02*
D03*
X398047D02*
D03*
X192095Y150500D02*
D03*
X198000D02*
D03*
X192047Y142500D02*
D03*
X197953D02*
D03*
D41*
X340000Y196500D02*
D03*
X335276D02*
D03*
X340000Y186000D02*
D03*
X335276D02*
D03*
X340000Y175500D02*
D03*
X335276D02*
D03*
X342500Y246354D02*
D03*
X337776D02*
D03*
X342500Y235500D02*
D03*
X337776D02*
D03*
X342500Y224500D02*
D03*
X337776D02*
D03*
X227000Y141570D02*
D03*
X222276D02*
D03*
X217551D02*
D03*
Y153937D02*
D03*
X222276D02*
D03*
X227000D02*
D03*
D42*
X367724Y160366D02*
D03*
Y162925D02*
D03*
Y165484D02*
D03*
Y168043D02*
D03*
Y170602D02*
D03*
Y173161D02*
D03*
Y175720D02*
D03*
Y178279D02*
D03*
Y180839D02*
D03*
Y183398D02*
D03*
Y185957D02*
D03*
Y188516D02*
D03*
Y191075D02*
D03*
Y193634D02*
D03*
X389575Y160366D02*
D03*
Y162925D02*
D03*
Y165484D02*
D03*
Y168043D02*
D03*
Y170602D02*
D03*
Y173161D02*
D03*
Y175720D02*
D03*
Y178279D02*
D03*
Y180839D02*
D03*
Y183398D02*
D03*
Y185957D02*
D03*
Y188516D02*
D03*
Y191075D02*
D03*
X368150Y224587D02*
D03*
Y227146D02*
D03*
Y229705D02*
D03*
Y232264D02*
D03*
Y234823D02*
D03*
Y237382D02*
D03*
Y239941D02*
D03*
Y242500D02*
D03*
Y245059D02*
D03*
Y247618D02*
D03*
Y250177D02*
D03*
Y252736D02*
D03*
Y255295D02*
D03*
Y257854D02*
D03*
X390000Y224587D02*
D03*
Y227146D02*
D03*
Y229705D02*
D03*
Y232264D02*
D03*
Y234823D02*
D03*
Y237382D02*
D03*
Y239941D02*
D03*
Y242500D02*
D03*
Y245059D02*
D03*
Y247618D02*
D03*
Y250177D02*
D03*
Y252736D02*
D03*
Y255295D02*
D03*
D43*
X389575Y193634D02*
D03*
X390000Y257854D02*
D03*
M02*
