G04 Layer_Color=32896*
%FSLAX25Y25*%
%MOIN*%
G70*
G01*
G75*
%ADD25C,0.00787*%
%ADD45C,0.01000*%
%ADD46C,0.01200*%
%ADD49C,0.00700*%
D25*
X378010Y194913D02*
X378650Y194274D01*
X379289Y194913D01*
X378435Y259134D02*
X379075Y258494D01*
X379715Y259134D01*
X392551Y201831D02*
X394126D01*
X392551Y199075D02*
X394126D01*
X401880Y196378D02*
X403455D01*
X401880Y193622D02*
X403455D01*
X372878Y146713D02*
Y148287D01*
X370122Y146713D02*
Y148287D01*
X390760Y267378D02*
X392335D01*
X390760Y264622D02*
X392335D01*
X400213Y261732D02*
X401787D01*
X400213Y258976D02*
X401787D01*
X376378Y214213D02*
Y215787D01*
X373622Y214213D02*
Y215787D01*
X194260Y149122D02*
X195835D01*
X194260Y151878D02*
X195835D01*
X194213Y141122D02*
X195787D01*
X194213Y143878D02*
X195787D01*
X406378Y178713D02*
Y180287D01*
X403622Y178713D02*
Y180287D01*
X401878Y166331D02*
Y167906D01*
X399122Y166331D02*
Y167906D01*
X361378Y169760D02*
Y171335D01*
X358622Y169760D02*
Y171335D01*
X406378Y245213D02*
Y246787D01*
X403622Y245213D02*
Y246787D01*
X402378Y232713D02*
Y234287D01*
X399622Y232713D02*
Y234287D01*
X357276Y220713D02*
Y222287D01*
X354520Y220713D02*
Y222287D01*
X385575Y159087D02*
Y194913D01*
X371775Y159087D02*
X385575D01*
X371775D02*
Y194913D01*
X378010D01*
X379289D02*
X385575D01*
X386000Y223307D02*
Y259134D01*
X372200Y223307D02*
X386000D01*
X372200D02*
Y259134D01*
X378435D01*
X379715D02*
X386000D01*
D45*
X342953Y192169D02*
Y200831D01*
X332323Y192169D02*
X342953D01*
X332323Y200831D02*
X342953D01*
X332323Y192169D02*
Y200831D01*
X342953Y181669D02*
Y190331D01*
X332323Y181669D02*
X342953D01*
X332323Y190331D02*
X342953D01*
X332323Y181669D02*
Y190331D01*
X342953Y171169D02*
Y179831D01*
X332323Y171169D02*
X342953D01*
X332323Y179831D02*
X342953D01*
X332323Y171169D02*
Y179831D01*
X345453Y242024D02*
Y250685D01*
X334823Y242024D02*
X345453D01*
X334823Y250685D02*
X345453D01*
X334823Y242024D02*
Y250685D01*
X345453Y231169D02*
Y239831D01*
X334823Y231169D02*
X345453D01*
X334823Y239831D02*
X345453D01*
X334823Y231169D02*
Y239831D01*
X345453Y220169D02*
Y228831D01*
X334823Y220169D02*
X345453D01*
X334823Y228831D02*
X345453D01*
X334823Y220169D02*
Y228831D01*
X229953Y137239D02*
Y145901D01*
X214598Y137239D02*
X229953D01*
X214598Y145901D02*
X229953D01*
X214598Y137239D02*
Y145901D01*
Y149606D02*
Y158268D01*
X229953D01*
X214598Y149606D02*
X229953D01*
Y158268D01*
D46*
X412000Y200000D02*
X419500D01*
X412000Y210000D02*
X419500D01*
X428000D02*
X435500D01*
X428000Y200000D02*
X435500D01*
X412000D02*
Y210000D01*
X435500Y200000D02*
Y210000D01*
X410200Y200000D02*
Y210000D01*
X412000Y212500D02*
X419500D01*
X412000Y222500D02*
X419500D01*
X428000D02*
X435500D01*
X428000Y212500D02*
X435500D01*
X412000D02*
Y222500D01*
X435500Y212500D02*
Y222500D01*
X410200Y212500D02*
Y222500D01*
D49*
X384168Y203334D02*
X383501Y204001D01*
Y205334D01*
X384168Y206000D01*
X386834D01*
X387500Y205334D01*
Y204001D01*
X386834Y203334D01*
X387500Y202001D02*
Y200668D01*
Y201335D01*
X383501D01*
X384168Y202001D01*
X387500Y196670D02*
X383501D01*
X385501Y198669D01*
Y196003D01*
X401166Y199168D02*
X400499Y198501D01*
X399166D01*
X398500Y199168D01*
Y201834D01*
X399166Y202500D01*
X400499D01*
X401166Y201834D01*
X402499Y202500D02*
X403832D01*
X403165D01*
Y198501D01*
X402499Y199168D01*
X408497Y198501D02*
X405831D01*
Y200501D01*
X407164Y199834D01*
X407830D01*
X408497Y200501D01*
Y201834D01*
X407830Y202500D01*
X406497D01*
X405831Y201834D01*
X438332Y202666D02*
X438999Y201999D01*
Y200666D01*
X438332Y200000D01*
X435666D01*
X435000Y200666D01*
Y201999D01*
X435666Y202666D01*
X435000Y203999D02*
Y205332D01*
Y204665D01*
X438999D01*
X438332Y203999D01*
X438999Y209997D02*
X438332Y208664D01*
X436999Y207331D01*
X435666D01*
X435000Y207997D01*
Y209330D01*
X435666Y209997D01*
X436333D01*
X436999Y209330D01*
Y207331D01*
X366832Y145166D02*
X367499Y144499D01*
Y143166D01*
X366832Y142500D01*
X364166D01*
X363500Y143166D01*
Y144499D01*
X364166Y145166D01*
X363500Y146499D02*
Y147832D01*
Y147165D01*
X367499D01*
X366832Y146499D01*
X367499Y149831D02*
Y152497D01*
X366832D01*
X364166Y149831D01*
X363500D01*
X393626Y272332D02*
X394292Y272999D01*
X395625D01*
X396291Y272332D01*
Y269666D01*
X395625Y269000D01*
X394292D01*
X393626Y269666D01*
X392293Y269000D02*
X390960D01*
X391626D01*
Y272999D01*
X392293Y272332D01*
X388960D02*
X388294Y272999D01*
X386961D01*
X386295Y272332D01*
Y271666D01*
X386961Y270999D01*
X386295Y270333D01*
Y269666D01*
X386961Y269000D01*
X388294D01*
X388960Y269666D01*
Y270333D01*
X388294Y270999D01*
X388960Y271666D01*
Y272332D01*
X388294Y270999D02*
X386961D01*
X404953Y267061D02*
X405620Y267727D01*
X406953D01*
X407619Y267061D01*
Y264395D01*
X406953Y263728D01*
X405620D01*
X404953Y264395D01*
X403620Y263728D02*
X402287D01*
X402954D01*
Y267727D01*
X403620Y267061D01*
X400288Y264395D02*
X399622Y263728D01*
X398289D01*
X397622Y264395D01*
Y267061D01*
X398289Y267727D01*
X399622D01*
X400288Y267061D01*
Y266394D01*
X399622Y265728D01*
X397622D01*
X436332Y227281D02*
X436999Y226615D01*
Y225282D01*
X436332Y224616D01*
X433666D01*
X433000Y225282D01*
Y226615D01*
X433666Y227281D01*
X433000Y231280D02*
Y228614D01*
X435666Y231280D01*
X436332D01*
X436999Y230614D01*
Y229281D01*
X436332Y228614D01*
Y232613D02*
X436999Y233279D01*
Y234612D01*
X436332Y235279D01*
X433666D01*
X433000Y234612D01*
Y233279D01*
X433666Y232613D01*
X436332D01*
X367593Y219834D02*
X366927Y220501D01*
Y221834D01*
X367593Y222500D01*
X370259D01*
X370925Y221834D01*
Y220501D01*
X370259Y219834D01*
X370925Y215835D02*
Y218501D01*
X368259Y215835D01*
X367593D01*
X366927Y216502D01*
Y217835D01*
X367593Y218501D01*
X370925Y214503D02*
Y213170D01*
Y213836D01*
X366927D01*
X367593Y214503D01*
X330999Y195666D02*
Y194333D01*
Y194999D01*
X327666D01*
X327000Y194333D01*
Y193667D01*
X327666Y193000D01*
X330332Y196999D02*
X330999Y197665D01*
Y198998D01*
X330332Y199664D01*
X329666D01*
X328999Y198998D01*
Y198332D01*
Y198998D01*
X328333Y199664D01*
X327666D01*
X327000Y198998D01*
Y197665D01*
X327666Y196999D01*
X330999Y185666D02*
Y184333D01*
Y184999D01*
X327666D01*
X327000Y184333D01*
Y183667D01*
X327666Y183000D01*
X330999Y189664D02*
Y186999D01*
X328999D01*
X329666Y188332D01*
Y188998D01*
X328999Y189664D01*
X327666D01*
X327000Y188998D01*
Y187665D01*
X327666Y186999D01*
X330999Y175166D02*
Y173833D01*
Y174499D01*
X327666D01*
X327000Y173833D01*
Y173167D01*
X327666Y172500D01*
X330999Y179165D02*
X330332Y177832D01*
X328999Y176499D01*
X327666D01*
X327000Y177165D01*
Y178498D01*
X327666Y179165D01*
X328333D01*
X328999Y178498D01*
Y176499D01*
X332999Y245166D02*
Y243833D01*
Y244499D01*
X329666D01*
X329000Y243833D01*
Y243166D01*
X329666Y242500D01*
X332999Y246499D02*
Y249165D01*
X332332D01*
X329666Y246499D01*
X329000D01*
X332999Y234930D02*
Y233597D01*
Y234263D01*
X329666D01*
X329000Y233597D01*
Y232930D01*
X329666Y232264D01*
Y236262D02*
X329000Y236929D01*
Y238262D01*
X329666Y238928D01*
X332332D01*
X332999Y238262D01*
Y236929D01*
X332332Y236262D01*
X331666D01*
X330999Y236929D01*
Y238928D01*
X332999Y222166D02*
Y220833D01*
Y221499D01*
X329666D01*
X329000Y220833D01*
Y220166D01*
X329666Y219500D01*
X329000Y223499D02*
Y224832D01*
Y224165D01*
X332999D01*
X332332Y223499D01*
Y226831D02*
X332999Y227497D01*
Y228830D01*
X332332Y229497D01*
X329666D01*
X329000Y228830D01*
Y227497D01*
X329666Y226831D01*
X332332D01*
X239334Y143499D02*
X240667D01*
X240001D01*
Y140166D01*
X240667Y139500D01*
X241334D01*
X242000Y140166D01*
X238001Y139500D02*
X236668D01*
X237335D01*
Y143499D01*
X238001Y142832D01*
X234669D02*
X234003Y143499D01*
X232670D01*
X232003Y142832D01*
Y142166D01*
X232670Y141499D01*
X233336D01*
X232670D01*
X232003Y140833D01*
Y140166D01*
X232670Y139500D01*
X234003D01*
X234669Y140166D01*
X239334Y155999D02*
X240667D01*
X240001D01*
Y152666D01*
X240667Y152000D01*
X241334D01*
X242000Y152666D01*
X238001Y152000D02*
X236668D01*
X237335D01*
Y155999D01*
X238001Y155332D01*
X232670Y152000D02*
Y155999D01*
X234669Y153999D01*
X232003D01*
X189000Y149000D02*
Y152999D01*
X187001D01*
X186334Y152332D01*
Y150999D01*
X187001Y150333D01*
X189000D01*
X187667D02*
X186334Y149000D01*
X185001D02*
X183668D01*
X184335D01*
Y152999D01*
X185001Y152332D01*
X181669D02*
X181003Y152999D01*
X179670D01*
X179003Y152332D01*
Y151666D01*
X179670Y150999D01*
X180336D01*
X179670D01*
X179003Y150333D01*
Y149667D01*
X179670Y149000D01*
X181003D01*
X181669Y149667D01*
X189000Y141000D02*
Y144999D01*
X187001D01*
X186334Y144332D01*
Y142999D01*
X187001Y142333D01*
X189000D01*
X187667D02*
X186334Y141000D01*
X185001D02*
X183668D01*
X184335D01*
Y144999D01*
X185001Y144332D01*
X179670Y141000D02*
Y144999D01*
X181669Y142999D01*
X179003D01*
X402000Y185000D02*
X398001D01*
Y183001D01*
X398668Y182334D01*
X400001D01*
X400667Y183001D01*
Y185000D01*
Y183667D02*
X402000Y182334D01*
Y181001D02*
Y179668D01*
Y180335D01*
X398001D01*
X398668Y181001D01*
X398001Y175003D02*
Y177669D01*
X400001D01*
X399334Y176336D01*
Y175670D01*
X400001Y175003D01*
X401334D01*
X402000Y175670D01*
Y177003D01*
X401334Y177669D01*
X407500Y171933D02*
X403501D01*
Y169934D01*
X404168Y169267D01*
X405501D01*
X406167Y169934D01*
Y171933D01*
Y170600D02*
X407500Y169267D01*
Y167934D02*
Y166602D01*
Y167268D01*
X403501D01*
X404168Y167934D01*
X403501Y161936D02*
X404168Y163269D01*
X405501Y164602D01*
X406834D01*
X407500Y163936D01*
Y162603D01*
X406834Y161936D01*
X406167D01*
X405501Y162603D01*
Y164602D01*
X362000Y186500D02*
X358001D01*
Y184501D01*
X358668Y183834D01*
X360001D01*
X360667Y184501D01*
Y186500D01*
Y185167D02*
X362000Y183834D01*
Y182501D02*
Y181168D01*
Y181835D01*
X358001D01*
X358668Y182501D01*
X358001Y179169D02*
Y176503D01*
X358668D01*
X361334Y179169D01*
X362000D01*
X402000Y251000D02*
X398001D01*
Y249001D01*
X398668Y248334D01*
X400001D01*
X400667Y249001D01*
Y251000D01*
Y249667D02*
X402000Y248334D01*
Y247001D02*
Y245668D01*
Y246335D01*
X398001D01*
X398668Y247001D01*
X401334Y243669D02*
X402000Y243003D01*
Y241670D01*
X401334Y241003D01*
X398668D01*
X398001Y241670D01*
Y243003D01*
X398668Y243669D01*
X399334D01*
X400001Y243003D01*
Y241003D01*
X408000Y239000D02*
X404001D01*
Y237001D01*
X404668Y236334D01*
X406001D01*
X406667Y237001D01*
Y239000D01*
Y237667D02*
X408000Y236334D01*
Y232335D02*
Y235001D01*
X405334Y232335D01*
X404668D01*
X404001Y233002D01*
Y234335D01*
X404668Y235001D01*
Y231003D02*
X404001Y230336D01*
Y229003D01*
X404668Y228337D01*
X407334D01*
X408000Y229003D01*
Y230336D01*
X407334Y231003D01*
X404668D01*
X358000Y216000D02*
X354001D01*
Y214001D01*
X354668Y213334D01*
X356001D01*
X356667Y214001D01*
Y216000D01*
Y214667D02*
X358000Y213334D01*
Y209335D02*
Y212001D01*
X355334Y209335D01*
X354668D01*
X354001Y210002D01*
Y211335D01*
X354668Y212001D01*
X358000Y208003D02*
Y206670D01*
Y207336D01*
X354001D01*
X354668Y208003D01*
X379150Y201499D02*
Y198167D01*
X378483Y197500D01*
X377150D01*
X376484Y198167D01*
Y201499D01*
X373151Y197500D02*
Y201499D01*
X375151Y199499D01*
X372485D01*
X377000Y265999D02*
Y262666D01*
X376334Y262000D01*
X375001D01*
X374334Y262666D01*
Y265999D01*
X370336D02*
X373001D01*
Y263999D01*
X371668Y264666D01*
X371002D01*
X370336Y263999D01*
Y262666D01*
X371002Y262000D01*
X372335D01*
X373001Y262666D01*
M02*
